G04*
G04 #@! TF.GenerationSoftware,Altium Limited,Altium Designer,19.1.8 (144)*
G04*
G04 Layer_Color=255*
%FSLAX43Y43*%
%MOMM*%
G71*
G01*
G75*
%ADD54C,1.530*%
%ADD55R,1.530X1.530*%
%ADD56C,1.500*%
%ADD57R,1.500X1.500*%
%ADD58C,1.600*%
%ADD59R,1.600X1.600*%
%ADD60C,1.800*%
%ADD61C,3.200*%
D54*
X142240Y117084D02*
D03*
Y114544D02*
D03*
Y112004D02*
D03*
Y109464D02*
D03*
Y106924D02*
D03*
Y104384D02*
D03*
Y101844D02*
D03*
Y99304D02*
D03*
Y96764D02*
D03*
Y94224D02*
D03*
Y91684D02*
D03*
Y89144D02*
D03*
Y86604D02*
D03*
Y84064D02*
D03*
Y81524D02*
D03*
Y78984D02*
D03*
Y76444D02*
D03*
Y73904D02*
D03*
Y71364D02*
D03*
X116840D02*
D03*
Y73904D02*
D03*
Y76444D02*
D03*
Y78984D02*
D03*
Y81524D02*
D03*
Y84064D02*
D03*
Y86604D02*
D03*
Y89144D02*
D03*
Y91684D02*
D03*
Y94224D02*
D03*
Y96764D02*
D03*
Y99304D02*
D03*
Y101844D02*
D03*
Y104384D02*
D03*
Y106924D02*
D03*
Y109464D02*
D03*
Y112004D02*
D03*
Y114544D02*
D03*
X161036Y65786D02*
D03*
Y63246D02*
D03*
Y60706D02*
D03*
Y58166D02*
D03*
Y55626D02*
D03*
Y53086D02*
D03*
Y50546D02*
D03*
Y48006D02*
D03*
X148336D02*
D03*
Y50546D02*
D03*
Y53086D02*
D03*
Y55626D02*
D03*
Y58166D02*
D03*
Y60706D02*
D03*
Y63246D02*
D03*
X161036Y116586D02*
D03*
Y114046D02*
D03*
Y111506D02*
D03*
Y108966D02*
D03*
Y106426D02*
D03*
Y103886D02*
D03*
Y101346D02*
D03*
Y98806D02*
D03*
X148336D02*
D03*
Y101346D02*
D03*
Y103886D02*
D03*
Y106426D02*
D03*
Y108966D02*
D03*
Y111506D02*
D03*
Y114046D02*
D03*
X161036Y91186D02*
D03*
Y88646D02*
D03*
Y86106D02*
D03*
Y83566D02*
D03*
Y81026D02*
D03*
Y78486D02*
D03*
Y75946D02*
D03*
Y73406D02*
D03*
X148336D02*
D03*
Y75946D02*
D03*
Y78486D02*
D03*
Y81026D02*
D03*
Y83566D02*
D03*
Y86106D02*
D03*
Y88646D02*
D03*
X158496Y63246D02*
D03*
X155956D02*
D03*
X158496Y88646D02*
D03*
X155956D02*
D03*
Y114046D02*
D03*
X158496D02*
D03*
D55*
X116840Y117084D02*
D03*
X148336Y65786D02*
D03*
Y116586D02*
D03*
Y91186D02*
D03*
D56*
X121539Y61214D02*
D03*
X118999D02*
D03*
X121539Y58674D02*
D03*
X118999D02*
D03*
X121539Y56134D02*
D03*
X118999D02*
D03*
X121539Y53594D02*
D03*
X118999D02*
D03*
X121539Y51054D02*
D03*
X118999D02*
D03*
X121539Y48514D02*
D03*
X111760Y99568D02*
D03*
Y104648D02*
D03*
Y109728D02*
D03*
Y89408D02*
D03*
Y94488D02*
D03*
X145288Y105664D02*
D03*
Y103124D02*
D03*
X167386Y60706D02*
D03*
Y58166D02*
D03*
Y55626D02*
D03*
Y111506D02*
D03*
Y108966D02*
D03*
Y106426D02*
D03*
Y86106D02*
D03*
Y83566D02*
D03*
Y81026D02*
D03*
X111760Y84328D02*
D03*
D57*
X118999Y48514D02*
D03*
X111760Y102108D02*
D03*
Y107188D02*
D03*
Y112268D02*
D03*
Y91948D02*
D03*
Y97028D02*
D03*
X145288Y108204D02*
D03*
X167386Y53086D02*
D03*
Y103886D02*
D03*
Y78486D02*
D03*
X111760Y86868D02*
D03*
D58*
X141986Y57023D02*
D03*
X139446D02*
D03*
D59*
X136906D02*
D03*
D60*
X137673Y47469D02*
D03*
X141483D02*
D03*
D61*
X169000Y119746D02*
D03*
X112000D02*
D03*
Y45746D02*
D03*
X169000D02*
D03*
M02*
