G04*
G04 #@! TF.GenerationSoftware,Altium Limited,Altium Designer,19.1.8 (144)*
G04*
G04 Layer_Color=65535*
%FSLAX43Y43*%
%MOMM*%
G71*
G01*
G75*
%ADD10C,0.250*%
%ADD11C,0.200*%
%ADD12C,0.254*%
%ADD13C,0.127*%
D10*
X119298Y84621D02*
G03*
X119298Y84621I-125J0D01*
G01*
Y89574D02*
G03*
X119298Y89574I-125J0D01*
G01*
D11*
X136904Y106720D02*
G03*
X136904Y106720I-100J0D01*
G01*
X115070Y117204D02*
G03*
X115070Y117204I-100J0D01*
G01*
X146386Y66346D02*
G03*
X146386Y66346I-100J0D01*
G01*
Y117146D02*
G03*
X146386Y117146I-100J0D01*
G01*
Y91746D02*
G03*
X146386Y91746I-100J0D01*
G01*
X138364Y45269D02*
G03*
X138556Y45414I0J200D01*
G01*
X136780D02*
G03*
X136972Y45269I192J55D01*
G01*
X142174D02*
G03*
X142366Y45414I0J200D01*
G01*
X140590D02*
G03*
X140782Y45269I192J55D01*
G01*
X119823Y83971D02*
X120623D01*
X119823D02*
Y84771D01*
Y86971D02*
X120623D01*
X119823Y86171D02*
Y86971D01*
X136764Y100970D02*
X138064D01*
X133970D02*
X135270D01*
X131176D02*
X132476D01*
X117729Y47244D02*
Y62484D01*
Y47244D02*
X122809D01*
Y62484D01*
X117729D02*
X122809D01*
X110490Y98298D02*
X113030D01*
Y103378D01*
X110490D02*
X113030D01*
X110490Y98298D02*
Y103378D01*
X113030D01*
Y108458D01*
X110490D02*
X113030D01*
X110490Y103378D02*
Y108458D01*
X113030D01*
Y113538D01*
X110490D02*
X113030D01*
X110490Y108458D02*
Y113538D01*
X123683Y92324D02*
X124983D01*
X110490Y88138D02*
X113030D01*
X110490D02*
Y93218D01*
X113030D01*
Y88138D02*
Y93218D01*
X110490D02*
X113030D01*
Y98298D01*
X110490D02*
X113030D01*
X110490Y93218D02*
Y98298D01*
X123058Y108824D02*
Y110124D01*
Y111364D02*
Y112664D01*
Y106284D02*
Y107584D01*
X144018Y101854D02*
Y109474D01*
Y101854D02*
X146558D01*
Y109474D01*
X144018D02*
X146558D01*
X118603Y116210D02*
X119903D01*
X132964Y52944D02*
Y54244D01*
X163434Y66416D02*
X164734D01*
X163434Y51176D02*
X164734D01*
X163434Y91816D02*
X164734D01*
X163434Y76576D02*
X164734D01*
X163434Y117216D02*
X164734D01*
X163434Y101976D02*
X164734D01*
X166116Y51816D02*
X168656D01*
X166116D02*
Y61976D01*
X168656Y51816D02*
Y61976D01*
X166116D02*
X168656D01*
X166116Y102616D02*
X168656D01*
X166116D02*
Y112776D01*
X168656Y102616D02*
Y112776D01*
X166116D02*
X168656D01*
X166116Y77216D02*
X168656D01*
X166116D02*
Y87376D01*
X168656Y77216D02*
Y87376D01*
X166116D02*
X168656D01*
X130156Y57170D02*
X130956D01*
X130156Y59670D02*
X130956D01*
X119823Y88924D02*
X120623D01*
X119823D02*
Y89724D01*
Y91924D02*
X120623D01*
X119823Y91124D02*
Y91924D01*
X123058Y103744D02*
Y105044D01*
X145288Y54991D02*
Y62611D01*
X133604Y54991D02*
Y62611D01*
Y54991D02*
X145288D01*
X133604Y62611D02*
X145288D01*
X133718Y60833D02*
X145288D01*
X135260Y52944D02*
Y54244D01*
X144394Y52944D02*
Y54244D01*
X140797Y63393D02*
X141397D01*
X140797Y65893D02*
X141397D01*
Y63393D02*
Y65893D01*
X141207Y63393D02*
Y65893D01*
X123810Y120010D02*
X125110D01*
X144078Y39469D02*
Y48669D01*
X136648Y39469D02*
Y46119D01*
X136748Y39469D02*
Y46119D01*
X136713Y39469D02*
Y46119D01*
X136108Y39469D02*
Y46119D01*
X139228Y39469D02*
Y46119D01*
X138633Y39469D02*
Y46119D01*
X138598Y39469D02*
Y46119D01*
X138698Y39469D02*
Y46119D01*
X139318Y39469D02*
Y46119D01*
X140458Y39469D02*
Y46119D01*
X140558Y39469D02*
Y46119D01*
X140523Y39469D02*
Y46119D01*
X139918Y39469D02*
Y46119D01*
X143038Y39469D02*
Y46119D01*
X142443Y39469D02*
Y46119D01*
X142408Y39469D02*
Y46119D01*
X142508Y39469D02*
Y46119D01*
X143128Y39469D02*
Y46119D01*
X136780Y45414D02*
X138556D01*
X136972Y45269D02*
X138364D01*
X140590Y45414D02*
X142366D01*
X140782Y45269D02*
X142174D01*
X137528Y40819D02*
X137818D01*
X141338D02*
X141628D01*
X137294Y41919D02*
X138052D01*
X137278Y41995D02*
Y45269D01*
X138068Y41995D02*
Y45269D01*
X137278Y41995D02*
X137528Y40819D01*
X137818D02*
X138068Y41995D01*
X141104Y41919D02*
X141862D01*
X141088Y41995D02*
Y45269D01*
X141878Y41995D02*
Y45269D01*
X141088Y41995D02*
X141338Y40819D01*
X141628D02*
X141878Y41995D01*
X135068Y39469D02*
X144078D01*
X135068D02*
Y48669D01*
X144078D01*
X143138Y39469D02*
Y48669D01*
X139828Y39469D02*
Y48669D01*
X139328Y39469D02*
Y48669D01*
X136018Y39469D02*
Y48669D01*
X113030Y83058D02*
Y88138D01*
X110490D02*
X113030D01*
X110490Y83058D02*
Y88138D01*
Y83058D02*
X113030D01*
X123683Y87371D02*
X124983D01*
X135255Y98171D02*
X134055D01*
Y98771D01*
X134255Y98971D01*
X134655D01*
X134855Y98771D01*
Y98171D01*
Y98571D02*
X135255Y98971D01*
X135055Y99371D02*
X135255Y99571D01*
Y99970D01*
X135055Y100170D01*
X134255D01*
X134055Y99970D01*
Y99571D01*
X134255Y99371D01*
X134455D01*
X134655Y99571D01*
Y100170D01*
X132334Y98171D02*
X131134D01*
Y98771D01*
X131334Y98971D01*
X131734D01*
X131934Y98771D01*
Y98171D01*
Y98571D02*
X132334Y98971D01*
X131334Y99371D02*
X131134Y99571D01*
Y99970D01*
X131334Y100170D01*
X131534D01*
X131734Y99970D01*
X131934Y100170D01*
X132134D01*
X132334Y99970D01*
Y99571D01*
X132134Y99371D01*
X131934D01*
X131734Y99571D01*
X131534Y99371D01*
X131334D01*
X131734Y99571D02*
Y99970D01*
X138049Y98171D02*
X136849D01*
Y98771D01*
X137049Y98971D01*
X137449D01*
X137649Y98771D01*
Y98171D01*
Y98571D02*
X138049Y98971D01*
X136849Y99371D02*
Y100170D01*
X137049D01*
X137849Y99371D01*
X138049D01*
X116205Y121469D02*
Y120469D01*
X116405Y120269D01*
X116805D01*
X117005Y120469D01*
Y121469D01*
X118204D02*
X117405D01*
Y120869D01*
X117804Y121069D01*
X118004D01*
X118204Y120869D01*
Y120469D01*
X118004Y120269D01*
X117605D01*
X117405Y120469D01*
X137706Y111944D02*
X137306D01*
X137506D01*
Y110944D01*
X137306Y110744D01*
X137106D01*
X136906Y110944D01*
X138905Y110744D02*
X138106D01*
X138905Y111544D01*
Y111744D01*
X138705Y111944D01*
X138306D01*
X138106Y111744D01*
X114992Y103124D02*
Y102324D01*
X114792D01*
X113992Y103124D01*
X113792D01*
Y102324D01*
X114992Y101924D02*
X113792D01*
Y101125D01*
X114992Y100725D02*
Y100325D01*
Y100525D01*
X113792D01*
Y100725D01*
Y100325D01*
Y99725D02*
X114992D01*
X114592Y99325D01*
X114992Y98925D01*
X113792D01*
X114992Y108204D02*
X114792D01*
X114392Y107804D01*
X114792Y107404D01*
X114992D01*
X114392Y107804D02*
X113792D01*
X114992Y107004D02*
X113792D01*
Y106205D01*
X114992Y105805D02*
Y105405D01*
Y105605D01*
X113792D01*
Y105805D01*
Y105405D01*
Y104805D02*
X114992D01*
X114592Y104405D01*
X114992Y104005D01*
X113792D01*
X114992Y113284D02*
X113792Y112484D01*
X114992D02*
X113792Y113284D01*
X114992Y112084D02*
X113792D01*
Y111285D01*
X114992Y110885D02*
Y110485D01*
Y110685D01*
X113792D01*
Y110885D01*
Y110485D01*
Y109885D02*
X114992D01*
X114592Y109485D01*
X114992Y109085D01*
X113792D01*
X123571Y92964D02*
Y94164D01*
X124171D01*
X124371Y93964D01*
Y93564D01*
X124171Y93364D01*
X123571D01*
X123971D02*
X124371Y92964D01*
X125570Y94164D02*
X124771D01*
Y93564D01*
X125170Y93764D01*
X125370D01*
X125570Y93564D01*
Y93164D01*
X125370Y92964D01*
X124971D01*
X124771Y93164D01*
X113792Y91440D02*
X114992D01*
Y90840D01*
X114792Y90640D01*
X114392D01*
X114192Y90840D01*
Y91440D01*
X114992Y90240D02*
X113792D01*
X114192Y89841D01*
X113792Y89441D01*
X114992D01*
X113792Y89041D02*
X114992D01*
X114592Y88641D01*
X114992Y88241D01*
X113792D01*
X114992Y98044D02*
X113792D01*
X114192Y97644D01*
X113792Y97244D01*
X114992D01*
X113792Y96844D02*
X114592D01*
X114992Y96445D01*
X114592Y96045D01*
X113792D01*
X114392D01*
Y96844D01*
X114992Y95645D02*
Y94845D01*
Y95245D01*
X113792D01*
X114992Y93645D02*
Y94445D01*
X113792D01*
Y93645D01*
X114392Y94445D02*
Y94045D01*
X113792Y93246D02*
X114992D01*
Y92646D01*
X114792Y92446D01*
X114392D01*
X114192Y92646D01*
Y93246D01*
Y92846D02*
X113792Y92446D01*
X123698Y108966D02*
Y110166D01*
X124298D01*
X124498Y109966D01*
Y109566D01*
X124298Y109366D01*
X123698D01*
X124098D02*
X124498Y108966D01*
X125497D02*
Y110166D01*
X124898Y109566D01*
X125697D01*
X123698Y110998D02*
Y112198D01*
X124298D01*
X124498Y111998D01*
Y111598D01*
X124298Y111398D01*
X123698D01*
X124098D02*
X124498Y110998D01*
X124898Y111998D02*
X125098Y112198D01*
X125497D01*
X125697Y111998D01*
Y111798D01*
X125497Y111598D01*
X125297D01*
X125497D01*
X125697Y111398D01*
Y111198D01*
X125497Y110998D01*
X125098D01*
X124898Y111198D01*
X123698Y106426D02*
Y107626D01*
X124298D01*
X124498Y107426D01*
Y107026D01*
X124298Y106826D01*
X123698D01*
X124098D02*
X124498Y106426D01*
X125697D02*
X124898D01*
X125697Y107226D01*
Y107426D01*
X125497Y107626D01*
X125098D01*
X124898Y107426D01*
X121355Y114300D02*
X122555D01*
Y115100D01*
Y115500D02*
Y115899D01*
Y115700D01*
X121355D01*
X121555Y115500D01*
X118888Y113957D02*
X118688Y113757D01*
Y113357D01*
X118888Y113157D01*
X119688D01*
X119888Y113357D01*
Y113757D01*
X119688Y113957D01*
X119888Y114357D02*
Y114756D01*
Y114557D01*
X118688D01*
X118888Y114357D01*
X119888Y115356D02*
Y115756D01*
Y115556D01*
X118688D01*
X118888Y115356D01*
X130848Y52054D02*
X130648Y52254D01*
X130248D01*
X130048Y52054D01*
Y51254D01*
X130248Y51054D01*
X130648D01*
X130848Y51254D01*
X131248Y52254D02*
X132047D01*
Y52054D01*
X131248Y51254D01*
Y51054D01*
X166154Y65008D02*
X165954Y65208D01*
X165554D01*
X165354Y65008D01*
Y64208D01*
X165554Y64008D01*
X165954D01*
X166154Y64208D01*
X167353Y65208D02*
X166953Y65008D01*
X166554Y64608D01*
Y64208D01*
X166754Y64008D01*
X167153D01*
X167353Y64208D01*
Y64408D01*
X167153Y64608D01*
X166554D01*
X166154Y49768D02*
X165954Y49968D01*
X165554D01*
X165354Y49768D01*
Y48968D01*
X165554Y48768D01*
X165954D01*
X166154Y48968D01*
X167353Y49968D02*
X166554D01*
Y49368D01*
X166953Y49568D01*
X167153D01*
X167353Y49368D01*
Y48968D01*
X167153Y48768D01*
X166754D01*
X166554Y48968D01*
X166154Y90408D02*
X165954Y90608D01*
X165554D01*
X165354Y90408D01*
Y89608D01*
X165554Y89408D01*
X165954D01*
X166154Y89608D01*
X167153Y89408D02*
Y90608D01*
X166554Y90008D01*
X167353D01*
X166154Y75168D02*
X165954Y75368D01*
X165554D01*
X165354Y75168D01*
Y74368D01*
X165554Y74168D01*
X165954D01*
X166154Y74368D01*
X166554Y75168D02*
X166754Y75368D01*
X167153D01*
X167353Y75168D01*
Y74968D01*
X167153Y74768D01*
X166953D01*
X167153D01*
X167353Y74568D01*
Y74368D01*
X167153Y74168D01*
X166754D01*
X166554Y74368D01*
X166154Y115554D02*
X165954Y115754D01*
X165554D01*
X165354Y115554D01*
Y114754D01*
X165554Y114554D01*
X165954D01*
X166154Y114754D01*
X167353Y114554D02*
X166554D01*
X167353Y115354D01*
Y115554D01*
X167153Y115754D01*
X166754D01*
X166554Y115554D01*
X166154Y100568D02*
X165954Y100768D01*
X165554D01*
X165354Y100568D01*
Y99768D01*
X165554Y99568D01*
X165954D01*
X166154Y99768D01*
X166554Y99568D02*
X166953D01*
X166754D01*
Y100768D01*
X166554Y100568D01*
X129794Y61779D02*
Y60579D01*
X130394D01*
X130594Y60779D01*
Y60979D01*
X130394Y61179D01*
X129794D01*
X130394D01*
X130594Y61379D01*
Y61579D01*
X130394Y61779D01*
X129794D01*
X130994Y60579D02*
X131393D01*
X131194D01*
Y61779D01*
X130994Y61579D01*
X120561Y93037D02*
Y93837D01*
X120361Y94037D01*
X119961D01*
X119761Y93837D01*
Y93037D01*
X119961Y92837D01*
X120361D01*
X120161Y93237D02*
X120561Y92837D01*
X120361D02*
X120561Y93037D01*
X120961Y92837D02*
X121360D01*
X121161D01*
Y94037D01*
X120961Y93837D01*
X123698Y103886D02*
Y105086D01*
X124298D01*
X124498Y104886D01*
Y104486D01*
X124298Y104286D01*
X123698D01*
X124098D02*
X124498Y103886D01*
X125697Y105086D02*
X125297Y104886D01*
X124898Y104486D01*
Y104086D01*
X125098Y103886D01*
X125497D01*
X125697Y104086D01*
Y104286D01*
X125497Y104486D01*
X124898D01*
X136690Y52054D02*
X136490Y52254D01*
X136090D01*
X135890Y52054D01*
Y51254D01*
X136090Y51054D01*
X136490D01*
X136690Y51254D01*
X137090Y52054D02*
X137290Y52254D01*
X137689D01*
X137889Y52054D01*
Y51854D01*
X137689Y51654D01*
X137889Y51454D01*
Y51254D01*
X137689Y51054D01*
X137290D01*
X137090Y51254D01*
Y51454D01*
X137290Y51654D01*
X137090Y51854D01*
Y52054D01*
X137290Y51654D02*
X137689D01*
X142532Y52054D02*
X142332Y52254D01*
X141932D01*
X141732Y52054D01*
Y51254D01*
X141932Y51054D01*
X142332D01*
X142532Y51254D01*
X142932D02*
X143132Y51054D01*
X143531D01*
X143731Y51254D01*
Y52054D01*
X143531Y52254D01*
X143132D01*
X142932Y52054D01*
Y51854D01*
X143132Y51654D01*
X143731D01*
X135801Y65135D02*
X135601Y65335D01*
X135201D01*
X135001Y65135D01*
Y64335D01*
X135201Y64135D01*
X135601D01*
X135801Y64335D01*
X136201Y64135D02*
X136600D01*
X136401D01*
Y65335D01*
X136201Y65135D01*
X137200D02*
X137400Y65335D01*
X137800D01*
X138000Y65135D01*
Y64335D01*
X137800Y64135D01*
X137400D01*
X137200Y64335D01*
Y65135D01*
X123968Y113830D02*
X123768Y113630D01*
Y113230D01*
X123968Y113030D01*
X124768D01*
X124968Y113230D01*
Y113630D01*
X124768Y113830D01*
X124968Y114230D02*
Y114629D01*
Y114430D01*
X123768D01*
X123968Y114230D01*
X124968Y116029D02*
Y115229D01*
X124168Y116029D01*
X123968D01*
X123768Y115829D01*
Y115429D01*
X123968Y115229D01*
X113792Y87122D02*
X114592D01*
X114992Y86722D01*
X114592Y86322D01*
X113792D01*
X114392D01*
Y87122D01*
X114992Y85922D02*
Y85523D01*
Y85722D01*
X113792D01*
Y85922D01*
Y85523D01*
Y84923D02*
X114992D01*
Y84323D01*
X114792Y84123D01*
X114392D01*
X114192Y84323D01*
Y84923D01*
Y84523D02*
X113792Y84123D01*
X120434Y81988D02*
Y82788D01*
X120234Y82988D01*
X119834D01*
X119634Y82788D01*
Y81988D01*
X119834Y81788D01*
X120234D01*
X120034Y82188D02*
X120434Y81788D01*
X120234D02*
X120434Y81988D01*
X121633Y81788D02*
X120834D01*
X121633Y82588D01*
Y82788D01*
X121433Y82988D01*
X121034D01*
X120834Y82788D01*
X123571Y81661D02*
Y82861D01*
X124171D01*
X124371Y82661D01*
Y82261D01*
X124171Y82061D01*
X123571D01*
X123971D02*
X124371Y81661D01*
X124771D02*
X125170D01*
X124971D01*
Y82861D01*
X124771Y82661D01*
D12*
X132969Y55626D02*
G03*
X132969Y55626I-402J0D01*
G01*
X145034Y44958D02*
X146050D01*
X145542Y45466D02*
Y44450D01*
X133477Y45085D02*
X134493D01*
X149606Y45466D02*
X148590D01*
Y43942D01*
X149606D01*
X148590Y44704D02*
X149098D01*
X151129Y45212D02*
X150875Y45466D01*
X150367D01*
X150114Y45212D01*
Y44958D01*
X150367Y44704D01*
X150875D01*
X151129Y44450D01*
Y44196D01*
X150875Y43942D01*
X150367D01*
X150114Y44196D01*
X151637Y43942D02*
Y45466D01*
X152399D01*
X152653Y45212D01*
Y44704D01*
X152399Y44450D01*
X151637D01*
X153161Y45212D02*
X153414Y45466D01*
X153922D01*
X154176Y45212D01*
Y44958D01*
X153922Y44704D01*
X153668D01*
X153922D01*
X154176Y44450D01*
Y44196D01*
X153922Y43942D01*
X153414D01*
X153161Y44196D01*
X155700Y43942D02*
X154684D01*
X155700Y44958D01*
Y45212D01*
X155446Y45466D01*
X154938D01*
X154684Y45212D01*
X158747D02*
X158493Y45466D01*
X157985D01*
X157731Y45212D01*
Y44196D01*
X157985Y43942D01*
X158493D01*
X158747Y44196D01*
Y44704D01*
X158239D01*
X159255Y43942D02*
Y45466D01*
X160016D01*
X160270Y45212D01*
Y44704D01*
X160016Y44450D01*
X159255D01*
X159762D02*
X160270Y43942D01*
X160778Y45466D02*
Y43942D01*
X161540D01*
X161794Y44196D01*
Y44450D01*
X161540Y44704D01*
X160778D01*
X161540D01*
X161794Y44958D01*
Y45212D01*
X161540Y45466D01*
X160778D01*
X162302D02*
Y43942D01*
X163317D01*
X112522Y56388D02*
Y57404D01*
X113030Y57912D01*
X113538Y57404D01*
Y56388D01*
Y57150D01*
X112522D01*
X114046Y57912D02*
Y56642D01*
X114299Y56388D01*
X114807D01*
X115061Y56642D01*
Y57912D01*
X115569D02*
X116585Y56388D01*
Y57912D02*
X115569Y56388D01*
X147320Y69596D02*
X148336D01*
Y69342D01*
X147320Y68326D01*
Y68072D01*
X148336D01*
X148844D02*
Y69088D01*
X149351Y69596D01*
X149859Y69088D01*
Y68072D01*
Y68834D01*
X148844D01*
X150367Y69596D02*
X151383Y68072D01*
Y69596D02*
X150367Y68072D01*
X151891Y69596D02*
X152398D01*
X152144D01*
Y68072D01*
X151891D01*
X152398D01*
X154176Y69342D02*
X153922Y69596D01*
X153414D01*
X153160Y69342D01*
Y69088D01*
X153414Y68834D01*
X153922D01*
X154176Y68580D01*
Y68326D01*
X153922Y68072D01*
X153414D01*
X153160Y68326D01*
X147066Y120142D02*
X148082Y118618D01*
Y120142D02*
X147066Y118618D01*
X148590D02*
Y119634D01*
X149097Y120142D01*
X149605Y119634D01*
Y118618D01*
Y119380D01*
X148590D01*
X150113Y120142D02*
X151129Y118618D01*
Y120142D02*
X150113Y118618D01*
X151637Y120142D02*
X152144D01*
X151890D01*
Y118618D01*
X151637D01*
X152144D01*
X153922Y119888D02*
X153668Y120142D01*
X153160D01*
X152906Y119888D01*
Y119634D01*
X153160Y119380D01*
X153668D01*
X153922Y119126D01*
Y118872D01*
X153668Y118618D01*
X153160D01*
X152906Y118872D01*
X147066Y94742D02*
Y94488D01*
X147574Y93980D01*
X148082Y94488D01*
Y94742D01*
X147574Y93980D02*
Y93218D01*
X148590D02*
Y94234D01*
X149097Y94742D01*
X149605Y94234D01*
Y93218D01*
Y93980D01*
X148590D01*
X150113Y94742D02*
X151129Y93218D01*
Y94742D02*
X150113Y93218D01*
X151637Y94742D02*
X152144D01*
X151890D01*
Y93218D01*
X151637D01*
X152144D01*
X153922Y94488D02*
X153668Y94742D01*
X153160D01*
X152906Y94488D01*
Y94234D01*
X153160Y93980D01*
X153668D01*
X153922Y93726D01*
Y93472D01*
X153668Y93218D01*
X153160D01*
X152906Y93472D01*
X169418Y57658D02*
X170434D01*
Y57404D01*
X169418Y56388D01*
Y56134D01*
X170434D01*
X169418Y108458D02*
X170434Y106934D01*
Y108458D02*
X169418Y106934D01*
Y82804D02*
Y82550D01*
X169926Y82042D01*
X170434Y82550D01*
Y82804D01*
X169926Y82042D02*
Y81280D01*
D13*
X127629Y109540D02*
Y115000D01*
Y119420D02*
X138384D01*
X139579Y109540D02*
Y115700D01*
X127629Y118390D02*
Y119420D01*
X115590Y66421D02*
X143490D01*
Y122047D01*
X115590D02*
X143490D01*
X115590Y66421D02*
Y122047D01*
X147066Y46736D02*
Y67056D01*
Y46736D02*
X162306D01*
Y67056D01*
X147066D02*
X162306D01*
X147066Y97536D02*
Y117856D01*
Y97536D02*
X162306D01*
Y117856D01*
X147066D02*
X162306D01*
X147066Y72136D02*
Y92456D01*
Y72136D02*
X162306D01*
Y92456D01*
X147066D02*
X162306D01*
M02*
