G04*
G04 #@! TF.GenerationSoftware,Altium Limited,Altium Designer,19.1.8 (144)*
G04*
G04 Layer_Color=255*
%FSLAX43Y43*%
%MOMM*%
G71*
G01*
G75*
%ADD14R,1.450X0.600*%
%ADD15R,0.800X1.500*%
%ADD16R,0.800X1.400*%
%ADD17R,1.300X1.500*%
%ADD18R,1.500X1.500*%
%ADD19R,1.450X1.000*%
%ADD20R,1.000X1.550*%
%ADD21R,0.700X1.750*%
%ADD22R,1.500X1.300*%
%ADD23R,1.300X1.500*%
%ADD24R,1.500X1.400*%
%ADD25R,1.300X2.700*%
%ADD26R,1.600X2.700*%
%ADD54C,1.530*%
%ADD55R,1.530X1.530*%
%ADD56C,1.500*%
%ADD57R,1.500X1.500*%
%ADD58C,1.600*%
%ADD59R,1.600X1.600*%
%ADD60C,1.800*%
%ADD61C,3.200*%
D14*
X121698Y84521D02*
D03*
Y86421D02*
D03*
X119348Y85471D02*
D03*
X121698Y89474D02*
D03*
Y91374D02*
D03*
X119348Y90424D02*
D03*
D15*
X127654Y116070D02*
D03*
D16*
X139579Y116720D02*
D03*
D17*
X127904Y108470D02*
D03*
D18*
X139254D02*
D03*
D19*
X127979Y117570D02*
D03*
D20*
X139179Y119145D02*
D03*
D21*
X129104Y108345D02*
D03*
X130204D02*
D03*
X131304D02*
D03*
X132404D02*
D03*
X133504D02*
D03*
X134604D02*
D03*
X135704D02*
D03*
X136804D02*
D03*
D22*
X137414Y101920D02*
D03*
Y103820D02*
D03*
X134620Y101920D02*
D03*
Y103820D02*
D03*
X131826Y101920D02*
D03*
Y103820D02*
D03*
X124333Y91374D02*
D03*
Y89474D02*
D03*
X119253Y117160D02*
D03*
Y119060D02*
D03*
X164084Y65466D02*
D03*
Y63566D02*
D03*
Y50226D02*
D03*
Y48326D02*
D03*
Y90866D02*
D03*
Y88966D02*
D03*
Y75626D02*
D03*
Y73726D02*
D03*
Y116266D02*
D03*
Y114366D02*
D03*
Y101026D02*
D03*
Y99126D02*
D03*
X124460Y117160D02*
D03*
Y119060D02*
D03*
X124333Y84521D02*
D03*
Y86421D02*
D03*
D23*
X122108Y109474D02*
D03*
X120208D02*
D03*
X122108Y112014D02*
D03*
X120208D02*
D03*
X122108Y106934D02*
D03*
X120208D02*
D03*
X132014Y53594D02*
D03*
X130114D02*
D03*
X120208Y104394D02*
D03*
X122108D02*
D03*
X138110Y53594D02*
D03*
X136210D02*
D03*
X141544D02*
D03*
X143444D02*
D03*
D24*
X121920Y119010D02*
D03*
Y117210D02*
D03*
D25*
X132006Y58420D02*
D03*
X129106D02*
D03*
D26*
X142497Y64643D02*
D03*
X139697D02*
D03*
D54*
X142240Y117084D02*
D03*
Y114544D02*
D03*
Y112004D02*
D03*
Y109464D02*
D03*
Y106924D02*
D03*
Y104384D02*
D03*
Y101844D02*
D03*
Y99304D02*
D03*
Y96764D02*
D03*
Y94224D02*
D03*
Y91684D02*
D03*
Y89144D02*
D03*
Y86604D02*
D03*
Y84064D02*
D03*
Y81524D02*
D03*
Y78984D02*
D03*
Y76444D02*
D03*
Y73904D02*
D03*
Y71364D02*
D03*
X116840D02*
D03*
Y73904D02*
D03*
Y76444D02*
D03*
Y78984D02*
D03*
Y81524D02*
D03*
Y84064D02*
D03*
Y86604D02*
D03*
Y89144D02*
D03*
Y91684D02*
D03*
Y94224D02*
D03*
Y96764D02*
D03*
Y99304D02*
D03*
Y101844D02*
D03*
Y104384D02*
D03*
Y106924D02*
D03*
Y109464D02*
D03*
Y112004D02*
D03*
Y114544D02*
D03*
X161036Y65786D02*
D03*
Y63246D02*
D03*
Y60706D02*
D03*
Y58166D02*
D03*
Y55626D02*
D03*
Y53086D02*
D03*
Y50546D02*
D03*
Y48006D02*
D03*
X148336D02*
D03*
Y50546D02*
D03*
Y53086D02*
D03*
Y55626D02*
D03*
Y58166D02*
D03*
Y60706D02*
D03*
Y63246D02*
D03*
X161036Y116586D02*
D03*
Y114046D02*
D03*
Y111506D02*
D03*
Y108966D02*
D03*
Y106426D02*
D03*
Y103886D02*
D03*
Y101346D02*
D03*
Y98806D02*
D03*
X148336D02*
D03*
Y101346D02*
D03*
Y103886D02*
D03*
Y106426D02*
D03*
Y108966D02*
D03*
Y111506D02*
D03*
Y114046D02*
D03*
X161036Y91186D02*
D03*
Y88646D02*
D03*
Y86106D02*
D03*
Y83566D02*
D03*
Y81026D02*
D03*
Y78486D02*
D03*
Y75946D02*
D03*
Y73406D02*
D03*
X148336D02*
D03*
Y75946D02*
D03*
Y78486D02*
D03*
Y81026D02*
D03*
Y83566D02*
D03*
Y86106D02*
D03*
Y88646D02*
D03*
X158496Y63246D02*
D03*
X155956D02*
D03*
X158496Y88646D02*
D03*
X155956D02*
D03*
Y114046D02*
D03*
X158496D02*
D03*
D55*
X116840Y117084D02*
D03*
X148336Y65786D02*
D03*
Y116586D02*
D03*
Y91186D02*
D03*
D56*
X121539Y61214D02*
D03*
X118999D02*
D03*
X121539Y58674D02*
D03*
X118999D02*
D03*
X121539Y56134D02*
D03*
X118999D02*
D03*
X121539Y53594D02*
D03*
X118999D02*
D03*
X121539Y51054D02*
D03*
X118999D02*
D03*
X121539Y48514D02*
D03*
X111760Y99568D02*
D03*
Y104648D02*
D03*
Y109728D02*
D03*
Y89408D02*
D03*
Y94488D02*
D03*
X145288Y105664D02*
D03*
Y103124D02*
D03*
X167386Y60706D02*
D03*
Y58166D02*
D03*
Y55626D02*
D03*
Y111506D02*
D03*
Y108966D02*
D03*
Y106426D02*
D03*
Y86106D02*
D03*
Y83566D02*
D03*
Y81026D02*
D03*
X111760Y84328D02*
D03*
D57*
X118999Y48514D02*
D03*
X111760Y102108D02*
D03*
Y107188D02*
D03*
Y112268D02*
D03*
Y91948D02*
D03*
Y97028D02*
D03*
X145288Y108204D02*
D03*
X167386Y53086D02*
D03*
Y103886D02*
D03*
Y78486D02*
D03*
X111760Y86868D02*
D03*
D58*
X141986Y57023D02*
D03*
X139446D02*
D03*
D59*
X136906D02*
D03*
D60*
X137673Y47469D02*
D03*
X141483D02*
D03*
D61*
X169000Y119746D02*
D03*
X112000D02*
D03*
Y45746D02*
D03*
X169000D02*
D03*
M02*
