G04*
G04 #@! TF.GenerationSoftware,Altium Limited,Altium Designer,19.1.8 (144)*
G04*
G04 Layer_Physical_Order=2*
G04 Layer_Color=16711680*
%FSLAX43Y43*%
%MOMM*%
G71*
G01*
G75*
%ADD48C,0.300*%
%ADD49C,0.700*%
%ADD50C,2.000*%
%ADD51C,1.500*%
%ADD54C,1.530*%
%ADD55R,1.530X1.530*%
%ADD56C,1.500*%
%ADD57R,1.500X1.500*%
%ADD58C,1.600*%
%ADD59R,1.600X1.600*%
%ADD60C,1.800*%
%ADD61C,3.200*%
%ADD62C,1.270*%
G36*
X171565Y43181D02*
X109481D01*
Y122311D01*
X171565D01*
Y43181D01*
D02*
G37*
%LPC*%
G36*
X169000Y121655D02*
X168628Y121619D01*
X168269Y121510D01*
X167939Y121333D01*
X167650Y121096D01*
X167413Y120807D01*
X167236Y120477D01*
X167127Y120118D01*
X167091Y119746D01*
X167127Y119374D01*
X167236Y119015D01*
X167413Y118685D01*
X167650Y118396D01*
X167939Y118159D01*
X168269Y117982D01*
X168628Y117873D01*
X169000Y117837D01*
X169372Y117873D01*
X169731Y117982D01*
X170061Y118159D01*
X170350Y118396D01*
X170587Y118685D01*
X170764Y119015D01*
X170873Y119374D01*
X170909Y119746D01*
X170873Y120118D01*
X170764Y120477D01*
X170587Y120807D01*
X170350Y121096D01*
X170061Y121333D01*
X169731Y121510D01*
X169372Y121619D01*
X169000Y121655D01*
D02*
G37*
G36*
X112000D02*
X111628Y121619D01*
X111269Y121510D01*
X110939Y121333D01*
X110650Y121096D01*
X110413Y120807D01*
X110236Y120477D01*
X110127Y120118D01*
X110091Y119746D01*
X110127Y119374D01*
X110236Y119015D01*
X110413Y118685D01*
X110650Y118396D01*
X110939Y118159D01*
X111269Y117982D01*
X111628Y117873D01*
X112000Y117837D01*
X112372Y117873D01*
X112731Y117982D01*
X113061Y118159D01*
X113350Y118396D01*
X113587Y118685D01*
X113764Y119015D01*
X113873Y119374D01*
X113909Y119746D01*
X113873Y120118D01*
X113764Y120477D01*
X113587Y120807D01*
X113350Y121096D01*
X113061Y121333D01*
X112731Y121510D01*
X112372Y121619D01*
X112000Y121655D01*
D02*
G37*
G36*
X142367Y118095D02*
Y117211D01*
X143251D01*
X143233Y117350D01*
X143130Y117598D01*
X142967Y117811D01*
X142754Y117974D01*
X142506Y118077D01*
X142367Y118095D01*
D02*
G37*
G36*
X142113D02*
X141974Y118077D01*
X141726Y117974D01*
X141513Y117811D01*
X141350Y117598D01*
X141247Y117350D01*
X141229Y117211D01*
X142113D01*
Y118095D01*
D02*
G37*
G36*
X134154Y119726D02*
X131654D01*
X131537Y119703D01*
X131438Y119636D01*
X131371Y119537D01*
X131348Y119420D01*
Y117420D01*
X131371Y117303D01*
X131438Y117204D01*
X131537Y117137D01*
X131654Y117114D01*
X134154D01*
X134271Y117137D01*
X134370Y117204D01*
X134437Y117303D01*
X134460Y117420D01*
Y119420D01*
X134437Y119537D01*
X134370Y119636D01*
X134271Y119703D01*
X134154Y119726D01*
D02*
G37*
G36*
X117905Y118149D02*
X115775D01*
Y116019D01*
X117905D01*
Y118149D01*
D02*
G37*
G36*
X149401Y117651D02*
X147271D01*
Y115521D01*
X149401D01*
Y117651D01*
D02*
G37*
G36*
X161036Y117660D02*
X160758Y117624D01*
X160499Y117516D01*
X160276Y117346D01*
X160106Y117123D01*
X159998Y116864D01*
X159962Y116586D01*
X159998Y116308D01*
X160106Y116049D01*
X160276Y115826D01*
X160499Y115656D01*
X160758Y115548D01*
X161036Y115512D01*
X161314Y115548D01*
X161573Y115656D01*
X161796Y115826D01*
X161966Y116049D01*
X162074Y116308D01*
X162110Y116586D01*
X162074Y116864D01*
X161966Y117123D01*
X161796Y117346D01*
X161573Y117516D01*
X161314Y117624D01*
X161036Y117660D01*
D02*
G37*
G36*
X161163Y115057D02*
Y114173D01*
X162047D01*
X162029Y114312D01*
X161926Y114560D01*
X161763Y114773D01*
X161550Y114936D01*
X161302Y115039D01*
X161163Y115057D01*
D02*
G37*
G36*
X160909D02*
X160770Y115039D01*
X160522Y114936D01*
X160309Y114773D01*
X160146Y114560D01*
X160043Y114312D01*
X160025Y114173D01*
X160909D01*
Y115057D01*
D02*
G37*
G36*
X158623D02*
Y114173D01*
X159507D01*
X159489Y114312D01*
X159386Y114560D01*
X159223Y114773D01*
X159010Y114936D01*
X158762Y115039D01*
X158623Y115057D01*
D02*
G37*
G36*
X158369D02*
X158230Y115039D01*
X157982Y114936D01*
X157769Y114773D01*
X157606Y114560D01*
X157503Y114312D01*
X157485Y114173D01*
X158369D01*
Y115057D01*
D02*
G37*
G36*
X116840Y115618D02*
X116562Y115582D01*
X116303Y115474D01*
X116080Y115304D01*
X115910Y115081D01*
X115802Y114822D01*
X115766Y114544D01*
X115802Y114266D01*
X115910Y114007D01*
X116080Y113784D01*
X116303Y113614D01*
X116562Y113506D01*
X116840Y113470D01*
X117118Y113506D01*
X117377Y113614D01*
X117600Y113784D01*
X117770Y114007D01*
X117878Y114266D01*
X117914Y114544D01*
X117878Y114822D01*
X117770Y115081D01*
X117600Y115304D01*
X117377Y115474D01*
X117118Y115582D01*
X116840Y115618D01*
D02*
G37*
G36*
X162047Y113919D02*
X161163D01*
Y113035D01*
X161302Y113053D01*
X161550Y113156D01*
X161763Y113319D01*
X161926Y113532D01*
X162029Y113780D01*
X162047Y113919D01*
D02*
G37*
G36*
X160909D02*
X160025D01*
X160043Y113780D01*
X160146Y113532D01*
X160309Y113319D01*
X160522Y113156D01*
X160770Y113053D01*
X160909Y113035D01*
Y113919D01*
D02*
G37*
G36*
X159507D02*
X158623D01*
Y113035D01*
X158762Y113053D01*
X159010Y113156D01*
X159223Y113319D01*
X159386Y113532D01*
X159489Y113780D01*
X159507Y113919D01*
D02*
G37*
G36*
X158369D02*
X157485D01*
X157503Y113780D01*
X157606Y113532D01*
X157769Y113319D01*
X157982Y113156D01*
X158230Y113053D01*
X158369Y113035D01*
Y113919D01*
D02*
G37*
G36*
X143251Y116957D02*
X141229D01*
X141247Y116818D01*
X141350Y116570D01*
X141441Y116451D01*
X141413Y116279D01*
X141408Y116275D01*
X140585Y115453D01*
X140520D01*
X140344Y115418D01*
X140195Y115318D01*
X130163Y105286D01*
X130063Y105137D01*
X130028Y104961D01*
Y102229D01*
X128454Y100654D01*
X128354Y100506D01*
X128319Y100330D01*
Y98552D01*
X128354Y98376D01*
X128454Y98228D01*
X129578Y97103D01*
Y92210D01*
X129613Y92035D01*
X129713Y91886D01*
X133457Y88141D01*
Y84703D01*
X133280Y84525D01*
X133180Y84377D01*
X133145Y84201D01*
Y83753D01*
X133132Y83748D01*
X132937Y83598D01*
X132787Y83403D01*
X132693Y83175D01*
X132661Y82931D01*
X132693Y82687D01*
X132787Y82459D01*
X132937Y82264D01*
X133132Y82114D01*
X133360Y82020D01*
X133604Y81988D01*
X133848Y82020D01*
X134076Y82114D01*
X134271Y82264D01*
X134421Y82459D01*
X134515Y82687D01*
X134547Y82931D01*
X134515Y83175D01*
X134488Y83241D01*
X134599Y83305D01*
X134715Y83153D01*
X134910Y83003D01*
X135138Y82909D01*
X135382Y82877D01*
X135626Y82909D01*
X135854Y83003D01*
X136049Y83153D01*
X136199Y83348D01*
X136293Y83576D01*
X136325Y83820D01*
X136293Y84064D01*
X136199Y84292D01*
X136049Y84487D01*
X135854Y84637D01*
X135626Y84731D01*
X135382Y84763D01*
X135138Y84731D01*
X135125Y84726D01*
X134825Y85026D01*
Y87155D01*
X134938Y87216D01*
X134952Y87215D01*
X135096Y87027D01*
X135291Y86877D01*
X135519Y86783D01*
X135763Y86750D01*
X136007Y86783D01*
X136235Y86877D01*
X136430Y87027D01*
X136580Y87222D01*
X136674Y87449D01*
X136706Y87693D01*
X136674Y87938D01*
X136580Y88165D01*
X136430Y88360D01*
X136235Y88510D01*
X136007Y88604D01*
X135763Y88637D01*
X135559Y88610D01*
X131396Y92773D01*
Y104585D01*
X132313Y105502D01*
X132434Y105462D01*
X132439Y105420D01*
X132533Y105192D01*
X132683Y104997D01*
X132878Y104847D01*
X133106Y104753D01*
X133350Y104721D01*
X133594Y104753D01*
X133822Y104847D01*
X134017Y104997D01*
X134167Y105192D01*
X134261Y105420D01*
X134293Y105664D01*
X134261Y105908D01*
X134167Y106136D01*
X134017Y106331D01*
X133822Y106481D01*
X133594Y106575D01*
X133552Y106580D01*
X133512Y106701D01*
X140896Y114085D01*
X141277D01*
X141310Y114007D01*
X141480Y113784D01*
X141703Y113614D01*
X141962Y113506D01*
X142240Y113470D01*
X142518Y113506D01*
X142777Y113614D01*
X143000Y113784D01*
X143051Y113852D01*
X143178Y113809D01*
Y113591D01*
X142596Y113009D01*
X142518Y113042D01*
X142240Y113078D01*
X141962Y113042D01*
X141703Y112934D01*
X141480Y112764D01*
X141310Y112541D01*
X141202Y112282D01*
X141166Y112004D01*
X141202Y111726D01*
X141310Y111467D01*
X141480Y111244D01*
X141703Y111074D01*
X141962Y110966D01*
X142240Y110930D01*
X142518Y110966D01*
X142777Y111074D01*
X143000Y111244D01*
X143170Y111467D01*
X143278Y111726D01*
X143314Y112004D01*
X143278Y112282D01*
X143245Y112360D01*
X143961Y113077D01*
X144061Y113225D01*
X144096Y113401D01*
Y115189D01*
X144061Y115365D01*
X143961Y115513D01*
X143199Y116275D01*
X143110Y116335D01*
X143069Y116491D01*
X143130Y116570D01*
X143233Y116818D01*
X143251Y116957D01*
D02*
G37*
G36*
X155956Y115120D02*
X155678Y115084D01*
X155419Y114976D01*
X155196Y114806D01*
X155026Y114583D01*
X154918Y114324D01*
X154882Y114046D01*
X154918Y113768D01*
X155026Y113509D01*
X155196Y113286D01*
X155419Y113116D01*
X155678Y113008D01*
X155956Y112972D01*
X156234Y113008D01*
X156493Y113116D01*
X156716Y113286D01*
X156886Y113509D01*
X156994Y113768D01*
X157030Y114046D01*
X156994Y114324D01*
X156886Y114583D01*
X156716Y114806D01*
X156493Y114976D01*
X156234Y115084D01*
X155956Y115120D01*
D02*
G37*
G36*
X148336D02*
X148058Y115084D01*
X147799Y114976D01*
X147576Y114806D01*
X147406Y114583D01*
X147298Y114324D01*
X147262Y114046D01*
X147298Y113768D01*
X147406Y113509D01*
X147576Y113286D01*
X147799Y113116D01*
X148058Y113008D01*
X148336Y112972D01*
X148614Y113008D01*
X148873Y113116D01*
X149096Y113286D01*
X149266Y113509D01*
X149374Y113768D01*
X149410Y114046D01*
X149374Y114324D01*
X149266Y114583D01*
X149096Y114806D01*
X148873Y114976D01*
X148614Y115084D01*
X148336Y115120D01*
D02*
G37*
G36*
X137204Y115526D02*
X128704D01*
X128587Y115503D01*
X128488Y115436D01*
X128421Y115337D01*
X128398Y115220D01*
Y113220D01*
X128421Y113103D01*
X128488Y113004D01*
X128587Y112937D01*
X128704Y112914D01*
X137204D01*
X137321Y112937D01*
X137420Y113004D01*
X137487Y113103D01*
X137510Y113220D01*
Y115220D01*
X137487Y115337D01*
X137420Y115436D01*
X137321Y115503D01*
X137204Y115526D01*
D02*
G37*
G36*
X112810Y113318D02*
X110710D01*
Y111218D01*
X112810D01*
Y113318D01*
D02*
G37*
G36*
X116840Y113078D02*
X116562Y113042D01*
X116303Y112934D01*
X116080Y112764D01*
X115910Y112541D01*
X115802Y112282D01*
X115766Y112004D01*
X115802Y111726D01*
X115910Y111467D01*
X116080Y111244D01*
X116303Y111074D01*
X116562Y110966D01*
X116840Y110930D01*
X117118Y110966D01*
X117377Y111074D01*
X117600Y111244D01*
X117770Y111467D01*
X117878Y111726D01*
X117914Y112004D01*
X117878Y112282D01*
X117770Y112541D01*
X117600Y112764D01*
X117377Y112934D01*
X117118Y113042D01*
X116840Y113078D01*
D02*
G37*
G36*
X167386Y112565D02*
X167112Y112529D01*
X166856Y112423D01*
X166637Y112255D01*
X166469Y112036D01*
X166363Y111780D01*
X166327Y111506D01*
X166363Y111232D01*
X166469Y110976D01*
X166637Y110757D01*
X166856Y110589D01*
X167112Y110483D01*
X167386Y110447D01*
X167660Y110483D01*
X167916Y110589D01*
X168135Y110757D01*
X168303Y110976D01*
X168409Y111232D01*
X168445Y111506D01*
X168409Y111780D01*
X168303Y112036D01*
X168135Y112255D01*
X167916Y112423D01*
X167660Y112529D01*
X167386Y112565D01*
D02*
G37*
G36*
X161036Y112580D02*
X160758Y112544D01*
X160499Y112436D01*
X160276Y112266D01*
X160106Y112043D01*
X159998Y111784D01*
X159962Y111506D01*
X159998Y111228D01*
X160106Y110969D01*
X160276Y110746D01*
X160499Y110576D01*
X160758Y110468D01*
X161036Y110432D01*
X161314Y110468D01*
X161573Y110576D01*
X161796Y110746D01*
X161966Y110969D01*
X162074Y111228D01*
X162110Y111506D01*
X162074Y111784D01*
X161966Y112043D01*
X161796Y112266D01*
X161573Y112436D01*
X161314Y112544D01*
X161036Y112580D01*
D02*
G37*
G36*
X148336D02*
X148058Y112544D01*
X147799Y112436D01*
X147576Y112266D01*
X147406Y112043D01*
X147298Y111784D01*
X147262Y111506D01*
X147298Y111228D01*
X147406Y110969D01*
X147576Y110746D01*
X147799Y110576D01*
X148058Y110468D01*
X148336Y110432D01*
X148614Y110468D01*
X148873Y110576D01*
X149096Y110746D01*
X149266Y110969D01*
X149374Y111228D01*
X149410Y111506D01*
X149374Y111784D01*
X149266Y112043D01*
X149096Y112266D01*
X148873Y112436D01*
X148614Y112544D01*
X148336Y112580D01*
D02*
G37*
G36*
X111887Y110724D02*
Y109855D01*
X112756D01*
X112738Y109990D01*
X112637Y110234D01*
X112476Y110444D01*
X112266Y110605D01*
X112022Y110706D01*
X111887Y110724D01*
D02*
G37*
G36*
X111633D02*
X111498Y110706D01*
X111254Y110605D01*
X111044Y110444D01*
X110883Y110234D01*
X110782Y109990D01*
X110764Y109855D01*
X111633D01*
Y110724D01*
D02*
G37*
G36*
X112756Y109601D02*
X111887D01*
Y108732D01*
X112022Y108750D01*
X112266Y108851D01*
X112476Y109012D01*
X112637Y109222D01*
X112738Y109466D01*
X112756Y109601D01*
D02*
G37*
G36*
X111633D02*
X110764D01*
X110782Y109466D01*
X110883Y109222D01*
X111044Y109012D01*
X111254Y108851D01*
X111498Y108750D01*
X111633Y108732D01*
Y109601D01*
D02*
G37*
G36*
X142240Y110538D02*
X141962Y110502D01*
X141703Y110394D01*
X141480Y110224D01*
X141310Y110001D01*
X141202Y109742D01*
X141166Y109464D01*
X141202Y109186D01*
X141310Y108927D01*
X141480Y108704D01*
X141703Y108534D01*
X141962Y108426D01*
X142240Y108390D01*
X142518Y108426D01*
X142777Y108534D01*
X143000Y108704D01*
X143170Y108927D01*
X143278Y109186D01*
X143314Y109464D01*
X143278Y109742D01*
X143170Y110001D01*
X143000Y110224D01*
X142777Y110394D01*
X142518Y110502D01*
X142240Y110538D01*
D02*
G37*
G36*
X116840D02*
X116562Y110502D01*
X116303Y110394D01*
X116080Y110224D01*
X115910Y110001D01*
X115802Y109742D01*
X115766Y109464D01*
X115802Y109186D01*
X115910Y108927D01*
X116080Y108704D01*
X116303Y108534D01*
X116562Y108426D01*
X116840Y108390D01*
X117118Y108426D01*
X117377Y108534D01*
X117600Y108704D01*
X117770Y108927D01*
X117878Y109186D01*
X117914Y109464D01*
X117878Y109742D01*
X117770Y110001D01*
X117600Y110224D01*
X117377Y110394D01*
X117118Y110502D01*
X116840Y110538D01*
D02*
G37*
G36*
X167386Y110025D02*
X167112Y109989D01*
X166856Y109883D01*
X166637Y109715D01*
X166469Y109496D01*
X166363Y109240D01*
X166327Y108966D01*
X166363Y108692D01*
X166469Y108436D01*
X166637Y108217D01*
X166856Y108049D01*
X167112Y107943D01*
X167386Y107907D01*
X167660Y107943D01*
X167916Y108049D01*
X168135Y108217D01*
X168303Y108436D01*
X168409Y108692D01*
X168445Y108966D01*
X168409Y109240D01*
X168303Y109496D01*
X168135Y109715D01*
X167916Y109883D01*
X167660Y109989D01*
X167386Y110025D01*
D02*
G37*
G36*
X161036Y110040D02*
X160758Y110004D01*
X160499Y109896D01*
X160276Y109726D01*
X160106Y109503D01*
X159998Y109244D01*
X159962Y108966D01*
X159998Y108688D01*
X160106Y108429D01*
X160276Y108206D01*
X160499Y108036D01*
X160758Y107928D01*
X161036Y107892D01*
X161314Y107928D01*
X161573Y108036D01*
X161796Y108206D01*
X161966Y108429D01*
X162074Y108688D01*
X162110Y108966D01*
X162074Y109244D01*
X161966Y109503D01*
X161796Y109726D01*
X161573Y109896D01*
X161314Y110004D01*
X161036Y110040D01*
D02*
G37*
G36*
X148336D02*
X148058Y110004D01*
X147799Y109896D01*
X147576Y109726D01*
X147406Y109503D01*
X147298Y109244D01*
X147262Y108966D01*
X147298Y108688D01*
X147406Y108429D01*
X147576Y108206D01*
X147799Y108036D01*
X148058Y107928D01*
X148336Y107892D01*
X148614Y107928D01*
X148873Y108036D01*
X149096Y108206D01*
X149266Y108429D01*
X149374Y108688D01*
X149410Y108966D01*
X149374Y109244D01*
X149266Y109503D01*
X149096Y109726D01*
X148873Y109896D01*
X148614Y110004D01*
X148336Y110040D01*
D02*
G37*
G36*
X146338Y109254D02*
X144238D01*
Y107154D01*
X146338D01*
Y109254D01*
D02*
G37*
G36*
X112810Y108238D02*
X110710D01*
Y106138D01*
X112810D01*
Y108238D01*
D02*
G37*
G36*
X142240Y107998D02*
X141962Y107962D01*
X141703Y107854D01*
X141480Y107684D01*
X141310Y107461D01*
X141202Y107202D01*
X141166Y106924D01*
X141202Y106646D01*
X141310Y106387D01*
X141480Y106164D01*
X141703Y105994D01*
X141962Y105886D01*
X142240Y105850D01*
X142518Y105886D01*
X142777Y105994D01*
X143000Y106164D01*
X143170Y106387D01*
X143278Y106646D01*
X143314Y106924D01*
X143278Y107202D01*
X143170Y107461D01*
X143000Y107684D01*
X142777Y107854D01*
X142518Y107962D01*
X142240Y107998D01*
D02*
G37*
G36*
X116840D02*
X116562Y107962D01*
X116303Y107854D01*
X116080Y107684D01*
X115910Y107461D01*
X115802Y107202D01*
X115766Y106924D01*
X115802Y106646D01*
X115910Y106387D01*
X116080Y106164D01*
X116303Y105994D01*
X116562Y105886D01*
X116840Y105850D01*
X117118Y105886D01*
X117377Y105994D01*
X117600Y106164D01*
X117770Y106387D01*
X117878Y106646D01*
X117914Y106924D01*
X117878Y107202D01*
X117770Y107461D01*
X117600Y107684D01*
X117377Y107854D01*
X117118Y107962D01*
X116840Y107998D01*
D02*
G37*
G36*
X150876Y112449D02*
X150632Y112417D01*
X150404Y112323D01*
X150209Y112173D01*
X150059Y111978D01*
X149965Y111750D01*
X149933Y111506D01*
X149965Y111262D01*
X150059Y111034D01*
X150209Y110839D01*
X150404Y110689D01*
X150417Y110684D01*
Y107248D01*
X150404Y107243D01*
X150209Y107093D01*
X150059Y106898D01*
X149965Y106670D01*
X149933Y106426D01*
X149965Y106182D01*
X150059Y105954D01*
X150209Y105759D01*
X150404Y105609D01*
X150632Y105515D01*
X150876Y105483D01*
X151120Y105515D01*
X151348Y105609D01*
X151543Y105759D01*
X151693Y105954D01*
X151787Y106182D01*
X151819Y106426D01*
X151787Y106670D01*
X151693Y106898D01*
X151543Y107093D01*
X151348Y107243D01*
X151335Y107248D01*
Y110684D01*
X151348Y110689D01*
X151543Y110839D01*
X151693Y111034D01*
X151787Y111262D01*
X151819Y111506D01*
X151787Y111750D01*
X151693Y111978D01*
X151543Y112173D01*
X151348Y112323D01*
X151120Y112417D01*
X150876Y112449D01*
D02*
G37*
G36*
X167386Y107485D02*
X167112Y107449D01*
X166856Y107343D01*
X166637Y107175D01*
X166469Y106956D01*
X166363Y106700D01*
X166327Y106426D01*
X166363Y106152D01*
X166469Y105896D01*
X166637Y105677D01*
X166856Y105509D01*
X167112Y105403D01*
X167386Y105367D01*
X167660Y105403D01*
X167916Y105509D01*
X168135Y105677D01*
X168303Y105896D01*
X168409Y106152D01*
X168445Y106426D01*
X168409Y106700D01*
X168303Y106956D01*
X168135Y107175D01*
X167916Y107343D01*
X167660Y107449D01*
X167386Y107485D01*
D02*
G37*
G36*
X161036Y107500D02*
X160758Y107464D01*
X160499Y107356D01*
X160276Y107186D01*
X160106Y106963D01*
X159998Y106704D01*
X159962Y106426D01*
X159998Y106148D01*
X160106Y105889D01*
X160276Y105666D01*
X160499Y105496D01*
X160758Y105388D01*
X161036Y105352D01*
X161314Y105388D01*
X161573Y105496D01*
X161796Y105666D01*
X161966Y105889D01*
X162074Y106148D01*
X162110Y106426D01*
X162074Y106704D01*
X161966Y106963D01*
X161796Y107186D01*
X161573Y107356D01*
X161314Y107464D01*
X161036Y107500D01*
D02*
G37*
G36*
X148336D02*
X148058Y107464D01*
X147799Y107356D01*
X147576Y107186D01*
X147406Y106963D01*
X147298Y106704D01*
X147262Y106426D01*
X147298Y106148D01*
X147406Y105889D01*
X147576Y105666D01*
X147799Y105496D01*
X148058Y105388D01*
X148336Y105352D01*
X148614Y105388D01*
X148873Y105496D01*
X149096Y105666D01*
X149266Y105889D01*
X149374Y106148D01*
X149410Y106426D01*
X149374Y106704D01*
X149266Y106963D01*
X149096Y107186D01*
X148873Y107356D01*
X148614Y107464D01*
X148336Y107500D01*
D02*
G37*
G36*
X111887Y105644D02*
Y104775D01*
X112756D01*
X112738Y104910D01*
X112637Y105154D01*
X112476Y105364D01*
X112266Y105525D01*
X112022Y105626D01*
X111887Y105644D01*
D02*
G37*
G36*
X111633D02*
X111498Y105626D01*
X111254Y105525D01*
X111044Y105364D01*
X110883Y105154D01*
X110782Y104910D01*
X110764Y104775D01*
X111633D01*
Y105644D01*
D02*
G37*
G36*
X145288Y106723D02*
X145014Y106687D01*
X144758Y106581D01*
X144539Y106413D01*
X144371Y106194D01*
X144265Y105938D01*
X144229Y105664D01*
X144265Y105390D01*
X144371Y105134D01*
X144539Y104915D01*
X144758Y104747D01*
X145014Y104641D01*
X145288Y104605D01*
X145562Y104641D01*
X145818Y104747D01*
X146037Y104915D01*
X146205Y105134D01*
X146311Y105390D01*
X146347Y105664D01*
X146311Y105938D01*
X146205Y106194D01*
X146037Y106413D01*
X145818Y106581D01*
X145562Y106687D01*
X145288Y106723D01*
D02*
G37*
G36*
X112756Y104521D02*
X111887D01*
Y103652D01*
X112022Y103670D01*
X112266Y103771D01*
X112476Y103932D01*
X112637Y104142D01*
X112738Y104386D01*
X112756Y104521D01*
D02*
G37*
G36*
X111633D02*
X110764D01*
X110782Y104386D01*
X110883Y104142D01*
X111044Y103932D01*
X111254Y103771D01*
X111498Y103670D01*
X111633Y103652D01*
Y104521D01*
D02*
G37*
G36*
X116840Y105458D02*
X116562Y105422D01*
X116303Y105314D01*
X116080Y105144D01*
X115910Y104921D01*
X115802Y104662D01*
X115766Y104384D01*
X115802Y104106D01*
X115910Y103847D01*
X116080Y103624D01*
X116303Y103454D01*
X116562Y103346D01*
X116840Y103310D01*
X117118Y103346D01*
X117377Y103454D01*
X117600Y103624D01*
X117770Y103847D01*
X117878Y104106D01*
X117914Y104384D01*
X117878Y104662D01*
X117770Y104921D01*
X117600Y105144D01*
X117377Y105314D01*
X117118Y105422D01*
X116840Y105458D01*
D02*
G37*
G36*
X145415Y104120D02*
Y103251D01*
X146284D01*
X146266Y103386D01*
X146165Y103630D01*
X146004Y103840D01*
X145794Y104001D01*
X145550Y104102D01*
X145415Y104120D01*
D02*
G37*
G36*
X145161D02*
X145026Y104102D01*
X144782Y104001D01*
X144572Y103840D01*
X144411Y103630D01*
X144310Y103386D01*
X144292Y103251D01*
X145161D01*
Y104120D01*
D02*
G37*
G36*
X168436Y104936D02*
X166336D01*
Y102836D01*
X168436D01*
Y104936D01*
D02*
G37*
G36*
X161036Y104960D02*
X160758Y104924D01*
X160499Y104816D01*
X160276Y104646D01*
X160106Y104423D01*
X159998Y104164D01*
X159962Y103886D01*
X159998Y103608D01*
X160106Y103349D01*
X160276Y103126D01*
X160499Y102956D01*
X160758Y102848D01*
X161036Y102812D01*
X161314Y102848D01*
X161573Y102956D01*
X161796Y103126D01*
X161966Y103349D01*
X162074Y103608D01*
X162110Y103886D01*
X162074Y104164D01*
X161966Y104423D01*
X161796Y104646D01*
X161573Y104816D01*
X161314Y104924D01*
X161036Y104960D01*
D02*
G37*
G36*
X148336D02*
X148058Y104924D01*
X147799Y104816D01*
X147576Y104646D01*
X147406Y104423D01*
X147298Y104164D01*
X147262Y103886D01*
X147298Y103608D01*
X147406Y103349D01*
X147576Y103126D01*
X147799Y102956D01*
X148058Y102848D01*
X148336Y102812D01*
X148614Y102848D01*
X148873Y102956D01*
X149096Y103126D01*
X149266Y103349D01*
X149374Y103608D01*
X149410Y103886D01*
X149374Y104164D01*
X149266Y104423D01*
X149096Y104646D01*
X148873Y104816D01*
X148614Y104924D01*
X148336Y104960D01*
D02*
G37*
G36*
X142240Y105458D02*
X141962Y105422D01*
X141703Y105314D01*
X141480Y105144D01*
X141310Y104921D01*
X141202Y104662D01*
X141166Y104384D01*
X141202Y104106D01*
X141310Y103847D01*
X141480Y103624D01*
X141703Y103454D01*
X141962Y103346D01*
X142240Y103310D01*
X142518Y103346D01*
X142596Y103379D01*
X143178Y102797D01*
Y102504D01*
X143051Y102461D01*
X142967Y102571D01*
X142754Y102734D01*
X142506Y102837D01*
X142367Y102855D01*
Y101844D01*
Y100833D01*
X142506Y100851D01*
X142754Y100954D01*
X142967Y101117D01*
X143051Y101227D01*
X143178Y101184D01*
Y100039D01*
X143051Y99996D01*
X143000Y100064D01*
X142777Y100234D01*
X142518Y100342D01*
X142240Y100378D01*
X141962Y100342D01*
X141703Y100234D01*
X141480Y100064D01*
X141310Y99841D01*
X141202Y99582D01*
X141166Y99304D01*
X141202Y99026D01*
X141310Y98767D01*
X141415Y98630D01*
X141352Y98503D01*
X140144D01*
X139992Y98655D01*
X140136Y98842D01*
X140230Y99070D01*
X140262Y99314D01*
X140230Y99558D01*
X140136Y99786D01*
X139986Y99981D01*
X139791Y100131D01*
X139563Y100225D01*
X139319Y100257D01*
X139075Y100225D01*
X138847Y100131D01*
X138652Y99981D01*
X138502Y99786D01*
X138408Y99558D01*
X138376Y99314D01*
X138408Y99070D01*
X138502Y98842D01*
X138652Y98647D01*
X138847Y98497D01*
X138919Y98468D01*
X138995Y98355D01*
X139630Y97720D01*
X139778Y97620D01*
X139954Y97585D01*
X141368D01*
X141430Y97458D01*
X141310Y97301D01*
X141202Y97042D01*
X141166Y96764D01*
X141202Y96486D01*
X141235Y96408D01*
X137517Y92689D01*
X137417Y92541D01*
X137382Y92365D01*
Y87485D01*
X136836Y86938D01*
X136736Y86790D01*
X136701Y86614D01*
Y83248D01*
X134303Y80850D01*
X132140D01*
X132135Y80863D01*
X131985Y81058D01*
X131790Y81208D01*
X131562Y81302D01*
X131318Y81334D01*
X131074Y81302D01*
X130846Y81208D01*
X130651Y81058D01*
X130501Y80863D01*
X130407Y80635D01*
X130375Y80391D01*
X130407Y80147D01*
X130501Y79919D01*
X130651Y79724D01*
X130846Y79574D01*
X131074Y79480D01*
X131318Y79448D01*
X131445Y79465D01*
X131535Y79375D01*
X131518Y79248D01*
X131550Y79004D01*
X131644Y78776D01*
X131710Y78691D01*
X131647Y78564D01*
X131251D01*
X131246Y78577D01*
X131096Y78772D01*
X130901Y78922D01*
X130673Y79016D01*
X130429Y79048D01*
X130185Y79016D01*
X129957Y78922D01*
X129762Y78772D01*
X129612Y78577D01*
X129518Y78349D01*
X129486Y78105D01*
X129518Y77861D01*
X129612Y77633D01*
X129762Y77438D01*
X129957Y77288D01*
X130185Y77194D01*
X130429Y77162D01*
X130673Y77194D01*
X130901Y77288D01*
X131096Y77438D01*
X131246Y77633D01*
X131251Y77646D01*
X132837D01*
X132886Y77529D01*
X122416Y67059D01*
X122316Y66910D01*
X122281Y66734D01*
Y62605D01*
X121884Y62208D01*
X121813Y62237D01*
X121539Y62273D01*
X121265Y62237D01*
X121009Y62131D01*
X120790Y61963D01*
X120622Y61744D01*
X120516Y61488D01*
X120480Y61214D01*
X120516Y60940D01*
X120622Y60684D01*
X120741Y60530D01*
X120678Y60403D01*
X120459D01*
X119993Y60869D01*
X120022Y60940D01*
X120058Y61214D01*
X120022Y61488D01*
X119916Y61744D01*
X119748Y61963D01*
X119529Y62131D01*
X119273Y62237D01*
X118999Y62273D01*
X118725Y62237D01*
X118469Y62131D01*
X118250Y61963D01*
X118082Y61744D01*
X117976Y61488D01*
X117940Y61214D01*
X117976Y60940D01*
X118082Y60684D01*
X118250Y60465D01*
X118469Y60297D01*
X118725Y60191D01*
X118999Y60155D01*
X119273Y60191D01*
X119344Y60220D01*
X119945Y59620D01*
X120093Y59520D01*
X120269Y59485D01*
X120678D01*
X120741Y59358D01*
X120622Y59204D01*
X120516Y58948D01*
X120480Y58674D01*
X120516Y58400D01*
X120622Y58144D01*
X120790Y57925D01*
X121009Y57757D01*
X121265Y57651D01*
X121539Y57615D01*
X121813Y57651D01*
X122069Y57757D01*
X122288Y57925D01*
X122456Y58144D01*
X122562Y58400D01*
X122598Y58674D01*
X122562Y58948D01*
X122456Y59204D01*
X122338Y59358D01*
X122400Y59485D01*
X122428D01*
X122604Y59520D01*
X122752Y59620D01*
X123514Y60382D01*
X123614Y60530D01*
X123649Y60706D01*
Y66358D01*
X135546Y78255D01*
X135563Y78267D01*
X135822Y78525D01*
X141277D01*
X141310Y78447D01*
X141480Y78224D01*
X141703Y78054D01*
X141962Y77946D01*
X142240Y77910D01*
X142518Y77946D01*
X142777Y78054D01*
X143000Y78224D01*
X143170Y78447D01*
X143278Y78706D01*
X143314Y78984D01*
X143278Y79262D01*
X143170Y79521D01*
X143000Y79744D01*
X142777Y79914D01*
X142518Y80022D01*
X142240Y80058D01*
X141962Y80022D01*
X141703Y79914D01*
X141480Y79744D01*
X141310Y79521D01*
X141277Y79443D01*
X136269D01*
X136220Y79560D01*
X137725Y81065D01*
X141277D01*
X141310Y80987D01*
X141480Y80764D01*
X141703Y80594D01*
X141962Y80486D01*
X142240Y80450D01*
X142518Y80486D01*
X142777Y80594D01*
X143000Y80764D01*
X143170Y80987D01*
X143278Y81246D01*
X143314Y81524D01*
X143278Y81802D01*
X143170Y82061D01*
X143000Y82284D01*
X142777Y82454D01*
X142518Y82562D01*
X142240Y82598D01*
X141962Y82562D01*
X141703Y82454D01*
X141480Y82284D01*
X141310Y82061D01*
X141277Y81983D01*
X138172D01*
X138124Y82100D01*
X140151Y84128D01*
X140251Y84277D01*
X140286Y84452D01*
Y89081D01*
X141884Y90679D01*
X141962Y90646D01*
X142240Y90610D01*
X142518Y90646D01*
X142777Y90754D01*
X143000Y90924D01*
X143170Y91147D01*
X143278Y91406D01*
X143314Y91684D01*
X143278Y91962D01*
X143170Y92221D01*
X143170Y92222D01*
X143265Y92306D01*
X143874Y91697D01*
X143869Y91684D01*
X143837Y91440D01*
X143869Y91196D01*
X143963Y90968D01*
X144113Y90773D01*
X144308Y90623D01*
X144536Y90529D01*
X144780Y90497D01*
X145024Y90529D01*
X145252Y90623D01*
X145364Y90710D01*
X145364Y90710D01*
X145366Y90711D01*
X145434Y90762D01*
X145434Y90762D01*
X145437Y90758D01*
X145444Y90750D01*
X145517Y90667D01*
X145218Y90367D01*
X145118Y90219D01*
X145083Y90043D01*
Y87820D01*
X144326Y87063D01*
X143203D01*
X143170Y87141D01*
X143000Y87364D01*
X142777Y87534D01*
X142518Y87642D01*
X142240Y87678D01*
X141962Y87642D01*
X141703Y87534D01*
X141480Y87364D01*
X141310Y87141D01*
X141202Y86882D01*
X141166Y86604D01*
X141202Y86326D01*
X141310Y86067D01*
X141480Y85844D01*
X141703Y85674D01*
X141962Y85566D01*
X142240Y85530D01*
X142518Y85566D01*
X142777Y85674D01*
X143000Y85844D01*
X143170Y86067D01*
X143203Y86145D01*
X144516D01*
X144692Y86180D01*
X144840Y86280D01*
X145866Y87306D01*
X145966Y87454D01*
X146001Y87630D01*
Y89853D01*
X146875Y90727D01*
X147271D01*
Y90121D01*
X149401D01*
Y92251D01*
X147271D01*
Y91645D01*
X146685D01*
X146509Y91610D01*
X146361Y91510D01*
X145553Y90703D01*
X145470Y90776D01*
X145462Y90783D01*
X145458Y90786D01*
X145458Y90786D01*
X145509Y90854D01*
X145510Y90856D01*
Y90856D01*
X145597Y90968D01*
X145691Y91196D01*
X145723Y91440D01*
X145691Y91684D01*
X145597Y91912D01*
X145447Y92107D01*
X145252Y92257D01*
X145024Y92351D01*
X144780Y92383D01*
X144536Y92351D01*
X144523Y92346D01*
X143580Y93288D01*
X143432Y93388D01*
X143256Y93423D01*
X143128D01*
X143065Y93550D01*
X143170Y93687D01*
X143278Y93946D01*
X143314Y94224D01*
X143278Y94502D01*
X143245Y94580D01*
X144469Y95805D01*
X144569Y95953D01*
X144604Y96129D01*
Y98544D01*
X144615Y98565D01*
X144717Y98650D01*
X144907Y98625D01*
X145151Y98657D01*
X145379Y98751D01*
X145574Y98901D01*
X145724Y99096D01*
X145818Y99324D01*
X145850Y99568D01*
X145818Y99812D01*
X145724Y100040D01*
X145574Y100235D01*
X145379Y100385D01*
X145151Y100479D01*
X144907Y100511D01*
X144663Y100479D01*
X144435Y100385D01*
X144240Y100235D01*
X144216Y100203D01*
X144096Y100244D01*
Y102987D01*
X144061Y103163D01*
X143961Y103311D01*
X143245Y104028D01*
X143278Y104106D01*
X143314Y104384D01*
X143278Y104662D01*
X143170Y104921D01*
X143000Y105144D01*
X142777Y105314D01*
X142518Y105422D01*
X142240Y105458D01*
D02*
G37*
G36*
X146284Y102997D02*
X145415D01*
Y102128D01*
X145550Y102146D01*
X145794Y102247D01*
X146004Y102408D01*
X146165Y102618D01*
X146266Y102862D01*
X146284Y102997D01*
D02*
G37*
G36*
X145161D02*
X144292D01*
X144310Y102862D01*
X144411Y102618D01*
X144572Y102408D01*
X144782Y102247D01*
X145026Y102146D01*
X145161Y102128D01*
Y102997D01*
D02*
G37*
G36*
X142113Y102855D02*
X141974Y102837D01*
X141726Y102734D01*
X141513Y102571D01*
X141350Y102358D01*
X141247Y102110D01*
X141229Y101971D01*
X142113D01*
Y102855D01*
D02*
G37*
G36*
X112810Y103158D02*
X110710D01*
Y101058D01*
X112810D01*
Y103158D01*
D02*
G37*
G36*
X142113Y101717D02*
X141229D01*
X141247Y101578D01*
X141350Y101330D01*
X141513Y101117D01*
X141726Y100954D01*
X141974Y100851D01*
X142113Y100833D01*
Y101717D01*
D02*
G37*
G36*
X116840Y102918D02*
X116562Y102882D01*
X116303Y102774D01*
X116080Y102604D01*
X115910Y102381D01*
X115802Y102122D01*
X115766Y101844D01*
X115802Y101566D01*
X115910Y101307D01*
X116080Y101084D01*
X116303Y100914D01*
X116562Y100806D01*
X116840Y100770D01*
X117118Y100806D01*
X117377Y100914D01*
X117600Y101084D01*
X117770Y101307D01*
X117878Y101566D01*
X117914Y101844D01*
X117878Y102122D01*
X117770Y102381D01*
X117600Y102604D01*
X117377Y102774D01*
X117118Y102882D01*
X116840Y102918D01*
D02*
G37*
G36*
X148336Y102420D02*
X148058Y102384D01*
X147799Y102276D01*
X147576Y102106D01*
X147406Y101883D01*
X147298Y101624D01*
X147262Y101346D01*
X147298Y101068D01*
X147406Y100809D01*
X147576Y100586D01*
X147799Y100416D01*
X148058Y100308D01*
X148336Y100272D01*
X148614Y100308D01*
X148873Y100416D01*
X149096Y100586D01*
X149266Y100809D01*
X149374Y101068D01*
X149410Y101346D01*
X149374Y101624D01*
X149266Y101883D01*
X149096Y102106D01*
X148873Y102276D01*
X148614Y102384D01*
X148336Y102420D01*
D02*
G37*
G36*
X161036Y102657D02*
X153416D01*
X153077Y102613D01*
X152760Y102482D01*
X152489Y102273D01*
X152280Y102002D01*
X152149Y101685D01*
X152105Y101346D01*
X152149Y101007D01*
X152280Y100690D01*
X152489Y100419D01*
X152760Y100210D01*
X153077Y100079D01*
X153416Y100035D01*
X161036D01*
X161375Y100079D01*
X161692Y100210D01*
X161963Y100419D01*
X162172Y100690D01*
X162303Y101007D01*
X162347Y101346D01*
X162303Y101685D01*
X162172Y102002D01*
X161963Y102273D01*
X161692Y102482D01*
X161375Y102613D01*
X161036Y102657D01*
D02*
G37*
G36*
X111887Y100564D02*
Y99695D01*
X112756D01*
X112738Y99830D01*
X112637Y100074D01*
X112476Y100284D01*
X112266Y100445D01*
X112022Y100546D01*
X111887Y100564D01*
D02*
G37*
G36*
X111633D02*
X111498Y100546D01*
X111254Y100445D01*
X111044Y100284D01*
X110883Y100074D01*
X110782Y99830D01*
X110764Y99695D01*
X111633D01*
Y100564D01*
D02*
G37*
G36*
X161163Y99817D02*
Y98933D01*
X162047D01*
X162029Y99072D01*
X161926Y99320D01*
X161763Y99533D01*
X161550Y99696D01*
X161302Y99799D01*
X161163Y99817D01*
D02*
G37*
G36*
X160909D02*
X160770Y99799D01*
X160522Y99696D01*
X160309Y99533D01*
X160146Y99320D01*
X160043Y99072D01*
X160025Y98933D01*
X160909D01*
Y99817D01*
D02*
G37*
G36*
X112756Y99441D02*
X111887D01*
Y98572D01*
X112022Y98590D01*
X112266Y98691D01*
X112476Y98852D01*
X112637Y99062D01*
X112738Y99306D01*
X112756Y99441D01*
D02*
G37*
G36*
X111633D02*
X110764D01*
X110782Y99306D01*
X110883Y99062D01*
X111044Y98852D01*
X111254Y98691D01*
X111498Y98590D01*
X111633Y98572D01*
Y99441D01*
D02*
G37*
G36*
X116840Y100378D02*
X116562Y100342D01*
X116303Y100234D01*
X116080Y100064D01*
X115910Y99841D01*
X115802Y99582D01*
X115766Y99304D01*
X115802Y99026D01*
X115910Y98767D01*
X116080Y98544D01*
X116303Y98374D01*
X116562Y98266D01*
X116840Y98230D01*
X117118Y98266D01*
X117377Y98374D01*
X117600Y98544D01*
X117770Y98767D01*
X117878Y99026D01*
X117914Y99304D01*
X117878Y99582D01*
X117770Y99841D01*
X117600Y100064D01*
X117377Y100234D01*
X117118Y100342D01*
X116840Y100378D01*
D02*
G37*
G36*
X162047Y98679D02*
X161163D01*
Y97795D01*
X161302Y97813D01*
X161550Y97916D01*
X161763Y98079D01*
X161926Y98292D01*
X162029Y98540D01*
X162047Y98679D01*
D02*
G37*
G36*
X160909D02*
X160025D01*
X160043Y98540D01*
X160146Y98292D01*
X160309Y98079D01*
X160522Y97916D01*
X160770Y97813D01*
X160909Y97795D01*
Y98679D01*
D02*
G37*
G36*
X148336Y99880D02*
X148058Y99844D01*
X147799Y99736D01*
X147576Y99566D01*
X147406Y99343D01*
X147298Y99084D01*
X147262Y98806D01*
X147298Y98528D01*
X147406Y98269D01*
X147576Y98046D01*
X147799Y97876D01*
X148058Y97768D01*
X148336Y97732D01*
X148614Y97768D01*
X148873Y97876D01*
X149096Y98046D01*
X149266Y98269D01*
X149374Y98528D01*
X149410Y98806D01*
X149374Y99084D01*
X149266Y99343D01*
X149096Y99566D01*
X148873Y99736D01*
X148614Y99844D01*
X148336Y99880D01*
D02*
G37*
G36*
X112810Y98078D02*
X110710D01*
Y95978D01*
X112810D01*
Y98078D01*
D02*
G37*
G36*
X116840Y97838D02*
X116562Y97802D01*
X116303Y97694D01*
X116080Y97524D01*
X115910Y97301D01*
X115802Y97042D01*
X115766Y96764D01*
X115802Y96486D01*
X115910Y96227D01*
X116080Y96004D01*
X116303Y95834D01*
X116562Y95726D01*
X116840Y95690D01*
X117118Y95726D01*
X117377Y95834D01*
X117600Y96004D01*
X117770Y96227D01*
X117878Y96486D01*
X117914Y96764D01*
X117878Y97042D01*
X117770Y97301D01*
X117600Y97524D01*
X117377Y97694D01*
X117118Y97802D01*
X116840Y97838D01*
D02*
G37*
G36*
X111760Y95547D02*
X111486Y95511D01*
X111230Y95405D01*
X111011Y95237D01*
X110843Y95018D01*
X110737Y94762D01*
X110701Y94488D01*
X110737Y94214D01*
X110843Y93958D01*
X111011Y93739D01*
X111230Y93571D01*
X111486Y93465D01*
X111760Y93429D01*
X112034Y93465D01*
X112290Y93571D01*
X112509Y93739D01*
X112677Y93958D01*
X112783Y94214D01*
X112819Y94488D01*
X112783Y94762D01*
X112677Y95018D01*
X112509Y95237D01*
X112290Y95405D01*
X112034Y95511D01*
X111760Y95547D01*
D02*
G37*
G36*
X116840Y95298D02*
X116562Y95262D01*
X116303Y95154D01*
X116080Y94984D01*
X115910Y94761D01*
X115802Y94502D01*
X115766Y94224D01*
X115802Y93946D01*
X115910Y93687D01*
X116080Y93464D01*
X116303Y93294D01*
X116562Y93186D01*
X116840Y93150D01*
X117118Y93186D01*
X117377Y93294D01*
X117600Y93464D01*
X117770Y93687D01*
X117878Y93946D01*
X117914Y94224D01*
X117878Y94502D01*
X117770Y94761D01*
X117600Y94984D01*
X117377Y95154D01*
X117118Y95262D01*
X116840Y95298D01*
D02*
G37*
G36*
X112810Y92998D02*
X110710D01*
Y90898D01*
X112810D01*
Y92998D01*
D02*
G37*
G36*
X116840Y92758D02*
X116562Y92722D01*
X116303Y92614D01*
X116080Y92444D01*
X115910Y92221D01*
X115802Y91962D01*
X115766Y91684D01*
X115802Y91406D01*
X115910Y91147D01*
X116080Y90924D01*
X116303Y90754D01*
X116562Y90646D01*
X116840Y90610D01*
X117118Y90646D01*
X117377Y90754D01*
X117600Y90924D01*
X117770Y91147D01*
X117878Y91406D01*
X117914Y91684D01*
X117878Y91962D01*
X117770Y92221D01*
X117600Y92444D01*
X117377Y92614D01*
X117118Y92722D01*
X116840Y92758D01*
D02*
G37*
G36*
X161036Y92260D02*
X160758Y92224D01*
X160499Y92116D01*
X160276Y91946D01*
X160106Y91723D01*
X159998Y91464D01*
X159962Y91186D01*
X159998Y90908D01*
X160106Y90649D01*
X160276Y90426D01*
X160499Y90256D01*
X160758Y90148D01*
X161036Y90112D01*
X161314Y90148D01*
X161573Y90256D01*
X161796Y90426D01*
X161966Y90649D01*
X162074Y90908D01*
X162110Y91186D01*
X162074Y91464D01*
X161966Y91723D01*
X161796Y91946D01*
X161573Y92116D01*
X161314Y92224D01*
X161036Y92260D01*
D02*
G37*
G36*
X111887Y90404D02*
Y89535D01*
X112756D01*
X112738Y89670D01*
X112637Y89914D01*
X112476Y90124D01*
X112266Y90285D01*
X112022Y90386D01*
X111887Y90404D01*
D02*
G37*
G36*
X111633D02*
X111498Y90386D01*
X111254Y90285D01*
X111044Y90124D01*
X110883Y89914D01*
X110782Y89670D01*
X110764Y89535D01*
X111633D01*
Y90404D01*
D02*
G37*
G36*
X161163Y89657D02*
Y88773D01*
X162047D01*
X162029Y88912D01*
X161926Y89160D01*
X161763Y89373D01*
X161550Y89536D01*
X161302Y89639D01*
X161163Y89657D01*
D02*
G37*
G36*
X160909D02*
X160770Y89639D01*
X160522Y89536D01*
X160309Y89373D01*
X160146Y89160D01*
X160043Y88912D01*
X160025Y88773D01*
X160909D01*
Y89657D01*
D02*
G37*
G36*
X158623D02*
Y88773D01*
X159507D01*
X159489Y88912D01*
X159386Y89160D01*
X159223Y89373D01*
X159010Y89536D01*
X158762Y89639D01*
X158623Y89657D01*
D02*
G37*
G36*
X158369D02*
X158230Y89639D01*
X157982Y89536D01*
X157769Y89373D01*
X157606Y89160D01*
X157503Y88912D01*
X157485Y88773D01*
X158369D01*
Y89657D01*
D02*
G37*
G36*
X112756Y89281D02*
X111887D01*
Y88412D01*
X112022Y88430D01*
X112266Y88531D01*
X112476Y88692D01*
X112637Y88902D01*
X112738Y89146D01*
X112756Y89281D01*
D02*
G37*
G36*
X111633D02*
X110764D01*
X110782Y89146D01*
X110883Y88902D01*
X111044Y88692D01*
X111254Y88531D01*
X111498Y88430D01*
X111633Y88412D01*
Y89281D01*
D02*
G37*
G36*
X142240Y90218D02*
X141962Y90182D01*
X141703Y90074D01*
X141480Y89904D01*
X141310Y89681D01*
X141202Y89422D01*
X141166Y89144D01*
X141202Y88866D01*
X141310Y88607D01*
X141480Y88384D01*
X141703Y88214D01*
X141962Y88106D01*
X142240Y88070D01*
X142518Y88106D01*
X142777Y88214D01*
X143000Y88384D01*
X143170Y88607D01*
X143278Y88866D01*
X143314Y89144D01*
X143278Y89422D01*
X143170Y89681D01*
X143000Y89904D01*
X142777Y90074D01*
X142518Y90182D01*
X142240Y90218D01*
D02*
G37*
G36*
X116840D02*
X116562Y90182D01*
X116303Y90074D01*
X116080Y89904D01*
X115910Y89681D01*
X115802Y89422D01*
X115766Y89144D01*
X115802Y88866D01*
X115835Y88788D01*
X114865Y87817D01*
X114765Y87669D01*
X114730Y87493D01*
Y62484D01*
X114765Y62308D01*
X114865Y62160D01*
X118005Y59019D01*
X117976Y58948D01*
X117940Y58674D01*
X117976Y58400D01*
X118082Y58144D01*
X118250Y57925D01*
X118469Y57757D01*
X118725Y57651D01*
X118999Y57615D01*
X119273Y57651D01*
X119529Y57757D01*
X119748Y57925D01*
X119916Y58144D01*
X120022Y58400D01*
X120058Y58674D01*
X120022Y58948D01*
X119916Y59204D01*
X119748Y59423D01*
X119529Y59591D01*
X119273Y59697D01*
X118999Y59733D01*
X118725Y59697D01*
X118654Y59668D01*
X115648Y62674D01*
Y71287D01*
X115775Y71296D01*
X115802Y71086D01*
X115910Y70827D01*
X116080Y70604D01*
X116303Y70434D01*
X116562Y70326D01*
X116840Y70290D01*
X117118Y70326D01*
X117377Y70434D01*
X117600Y70604D01*
X117770Y70827D01*
X117878Y71086D01*
X117914Y71364D01*
X117878Y71642D01*
X117770Y71901D01*
X117600Y72124D01*
X117377Y72294D01*
X117118Y72402D01*
X116840Y72438D01*
X116562Y72402D01*
X116303Y72294D01*
X116080Y72124D01*
X115910Y71901D01*
X115802Y71642D01*
X115775Y71432D01*
X115648Y71441D01*
Y73827D01*
X115775Y73836D01*
X115802Y73626D01*
X115910Y73367D01*
X116080Y73144D01*
X116303Y72974D01*
X116562Y72866D01*
X116840Y72830D01*
X117118Y72866D01*
X117377Y72974D01*
X117600Y73144D01*
X117770Y73367D01*
X117878Y73626D01*
X117914Y73904D01*
X117878Y74182D01*
X117770Y74441D01*
X117600Y74664D01*
X117377Y74834D01*
X117118Y74942D01*
X116840Y74978D01*
X116562Y74942D01*
X116303Y74834D01*
X116080Y74664D01*
X115910Y74441D01*
X115802Y74182D01*
X115775Y73972D01*
X115648Y73981D01*
Y76367D01*
X115775Y76376D01*
X115802Y76166D01*
X115910Y75907D01*
X116080Y75684D01*
X116303Y75514D01*
X116562Y75406D01*
X116840Y75370D01*
X117118Y75406D01*
X117377Y75514D01*
X117600Y75684D01*
X117770Y75907D01*
X117878Y76166D01*
X117914Y76444D01*
X117878Y76722D01*
X117770Y76981D01*
X117600Y77204D01*
X117377Y77374D01*
X117118Y77482D01*
X116840Y77518D01*
X116562Y77482D01*
X116303Y77374D01*
X116080Y77204D01*
X115910Y76981D01*
X115802Y76722D01*
X115775Y76512D01*
X115648Y76521D01*
Y78907D01*
X115775Y78916D01*
X115802Y78706D01*
X115910Y78447D01*
X116080Y78224D01*
X116303Y78054D01*
X116562Y77946D01*
X116840Y77910D01*
X117118Y77946D01*
X117377Y78054D01*
X117600Y78224D01*
X117770Y78447D01*
X117878Y78706D01*
X117914Y78984D01*
X117878Y79262D01*
X117770Y79521D01*
X117600Y79744D01*
X117377Y79914D01*
X117118Y80022D01*
X116840Y80058D01*
X116562Y80022D01*
X116303Y79914D01*
X116080Y79744D01*
X115910Y79521D01*
X115802Y79262D01*
X115775Y79052D01*
X115648Y79061D01*
Y81447D01*
X115775Y81456D01*
X115802Y81246D01*
X115910Y80987D01*
X116080Y80764D01*
X116303Y80594D01*
X116562Y80486D01*
X116840Y80450D01*
X117118Y80486D01*
X117377Y80594D01*
X117600Y80764D01*
X117770Y80987D01*
X117878Y81246D01*
X117914Y81524D01*
X117878Y81802D01*
X117770Y82061D01*
X117600Y82284D01*
X117377Y82454D01*
X117118Y82562D01*
X116840Y82598D01*
X116562Y82562D01*
X116303Y82454D01*
X116080Y82284D01*
X115910Y82061D01*
X115802Y81802D01*
X115775Y81592D01*
X115648Y81601D01*
Y86527D01*
X115775Y86536D01*
X115802Y86326D01*
X115910Y86067D01*
X116080Y85844D01*
X116303Y85674D01*
X116562Y85566D01*
X116840Y85530D01*
X117118Y85566D01*
X117377Y85674D01*
X117600Y85844D01*
X117770Y86067D01*
X117878Y86326D01*
X117914Y86604D01*
X117878Y86882D01*
X117770Y87141D01*
X117600Y87364D01*
X117377Y87534D01*
X117118Y87642D01*
X116840Y87678D01*
X116562Y87642D01*
X116303Y87534D01*
X116080Y87364D01*
X115910Y87141D01*
X115802Y86882D01*
X115775Y86672D01*
X115648Y86681D01*
Y87303D01*
X116484Y88139D01*
X116562Y88106D01*
X116840Y88070D01*
X117118Y88106D01*
X117377Y88214D01*
X117600Y88384D01*
X117770Y88607D01*
X117878Y88866D01*
X117914Y89144D01*
X117878Y89422D01*
X117770Y89681D01*
X117600Y89904D01*
X117377Y90074D01*
X117118Y90182D01*
X116840Y90218D01*
D02*
G37*
G36*
X162047Y88519D02*
X161163D01*
Y87635D01*
X161302Y87653D01*
X161550Y87756D01*
X161763Y87919D01*
X161926Y88132D01*
X162029Y88380D01*
X162047Y88519D01*
D02*
G37*
G36*
X160909D02*
X160025D01*
X160043Y88380D01*
X160146Y88132D01*
X160309Y87919D01*
X160522Y87756D01*
X160770Y87653D01*
X160909Y87635D01*
Y88519D01*
D02*
G37*
G36*
X159507D02*
X158623D01*
Y87635D01*
X158762Y87653D01*
X159010Y87756D01*
X159223Y87919D01*
X159386Y88132D01*
X159489Y88380D01*
X159507Y88519D01*
D02*
G37*
G36*
X158369D02*
X157485D01*
X157503Y88380D01*
X157606Y88132D01*
X157769Y87919D01*
X157982Y87756D01*
X158230Y87653D01*
X158369Y87635D01*
Y88519D01*
D02*
G37*
G36*
X155956Y89720D02*
X155678Y89684D01*
X155419Y89576D01*
X155196Y89406D01*
X155026Y89183D01*
X154918Y88924D01*
X154882Y88646D01*
X154918Y88368D01*
X155026Y88109D01*
X155196Y87886D01*
X155419Y87716D01*
X155678Y87608D01*
X155956Y87572D01*
X156234Y87608D01*
X156493Y87716D01*
X156716Y87886D01*
X156886Y88109D01*
X156994Y88368D01*
X157030Y88646D01*
X156994Y88924D01*
X156886Y89183D01*
X156716Y89406D01*
X156493Y89576D01*
X156234Y89684D01*
X155956Y89720D01*
D02*
G37*
G36*
X148336D02*
X148058Y89684D01*
X147799Y89576D01*
X147576Y89406D01*
X147406Y89183D01*
X147298Y88924D01*
X147262Y88646D01*
X147298Y88368D01*
X147406Y88109D01*
X147576Y87886D01*
X147799Y87716D01*
X148058Y87608D01*
X148336Y87572D01*
X148614Y87608D01*
X148873Y87716D01*
X149096Y87886D01*
X149266Y88109D01*
X149374Y88368D01*
X149410Y88646D01*
X149374Y88924D01*
X149266Y89183D01*
X149096Y89406D01*
X148873Y89576D01*
X148614Y89684D01*
X148336Y89720D01*
D02*
G37*
G36*
X112810Y87918D02*
X110710D01*
Y85818D01*
X112810D01*
Y87918D01*
D02*
G37*
G36*
X167386Y87165D02*
X167112Y87129D01*
X166856Y87023D01*
X166637Y86855D01*
X166469Y86636D01*
X166363Y86380D01*
X166327Y86106D01*
X166363Y85832D01*
X166469Y85576D01*
X166637Y85357D01*
X166856Y85189D01*
X167112Y85083D01*
X167386Y85047D01*
X167660Y85083D01*
X167916Y85189D01*
X168135Y85357D01*
X168303Y85576D01*
X168409Y85832D01*
X168445Y86106D01*
X168409Y86380D01*
X168303Y86636D01*
X168135Y86855D01*
X167916Y87023D01*
X167660Y87129D01*
X167386Y87165D01*
D02*
G37*
G36*
X161036Y87180D02*
X160758Y87144D01*
X160499Y87036D01*
X160276Y86866D01*
X160106Y86643D01*
X159998Y86384D01*
X159962Y86106D01*
X159998Y85828D01*
X160106Y85569D01*
X160276Y85346D01*
X160499Y85176D01*
X160758Y85068D01*
X161036Y85032D01*
X161314Y85068D01*
X161573Y85176D01*
X161796Y85346D01*
X161966Y85569D01*
X162074Y85828D01*
X162110Y86106D01*
X162074Y86384D01*
X161966Y86643D01*
X161796Y86866D01*
X161573Y87036D01*
X161314Y87144D01*
X161036Y87180D01*
D02*
G37*
G36*
X148336D02*
X148058Y87144D01*
X147799Y87036D01*
X147576Y86866D01*
X147406Y86643D01*
X147298Y86384D01*
X147262Y86106D01*
X147298Y85828D01*
X147406Y85569D01*
X147576Y85346D01*
X147799Y85176D01*
X148058Y85068D01*
X148336Y85032D01*
X148614Y85068D01*
X148873Y85176D01*
X149096Y85346D01*
X149266Y85569D01*
X149374Y85828D01*
X149410Y86106D01*
X149374Y86384D01*
X149266Y86643D01*
X149096Y86866D01*
X148873Y87036D01*
X148614Y87144D01*
X148336Y87180D01*
D02*
G37*
G36*
X116967Y85075D02*
Y84191D01*
X117851D01*
X117833Y84330D01*
X117730Y84578D01*
X117567Y84791D01*
X117354Y84954D01*
X117106Y85057D01*
X116967Y85075D01*
D02*
G37*
G36*
X116713D02*
X116574Y85057D01*
X116326Y84954D01*
X116113Y84791D01*
X115950Y84578D01*
X115847Y84330D01*
X115829Y84191D01*
X116713D01*
Y85075D01*
D02*
G37*
G36*
X111760Y85387D02*
X111486Y85351D01*
X111230Y85245D01*
X111011Y85077D01*
X110843Y84858D01*
X110737Y84602D01*
X110701Y84328D01*
X110737Y84054D01*
X110843Y83798D01*
X111011Y83579D01*
X111230Y83411D01*
X111486Y83305D01*
X111760Y83269D01*
X112034Y83305D01*
X112290Y83411D01*
X112509Y83579D01*
X112677Y83798D01*
X112783Y84054D01*
X112819Y84328D01*
X112783Y84602D01*
X112677Y84858D01*
X112509Y85077D01*
X112290Y85245D01*
X112034Y85351D01*
X111760Y85387D01*
D02*
G37*
G36*
X117851Y83937D02*
X116967D01*
Y83053D01*
X117106Y83071D01*
X117354Y83174D01*
X117567Y83337D01*
X117730Y83550D01*
X117833Y83798D01*
X117851Y83937D01*
D02*
G37*
G36*
X116713D02*
X115829D01*
X115847Y83798D01*
X115950Y83550D01*
X116113Y83337D01*
X116326Y83174D01*
X116574Y83071D01*
X116713Y83053D01*
Y83937D01*
D02*
G37*
G36*
X142240Y85138D02*
X141962Y85102D01*
X141703Y84994D01*
X141480Y84824D01*
X141310Y84601D01*
X141202Y84342D01*
X141166Y84064D01*
X141202Y83786D01*
X141310Y83527D01*
X141480Y83304D01*
X141703Y83134D01*
X141962Y83026D01*
X142240Y82990D01*
X142518Y83026D01*
X142777Y83134D01*
X143000Y83304D01*
X143170Y83527D01*
X143278Y83786D01*
X143314Y84064D01*
X143278Y84342D01*
X143170Y84601D01*
X143000Y84824D01*
X142777Y84994D01*
X142518Y85102D01*
X142240Y85138D01*
D02*
G37*
G36*
X167386Y84625D02*
X167112Y84589D01*
X166856Y84483D01*
X166637Y84315D01*
X166469Y84096D01*
X166363Y83840D01*
X166327Y83566D01*
X166363Y83292D01*
X166469Y83036D01*
X166637Y82817D01*
X166856Y82649D01*
X167112Y82543D01*
X167386Y82507D01*
X167660Y82543D01*
X167916Y82649D01*
X168135Y82817D01*
X168303Y83036D01*
X168409Y83292D01*
X168445Y83566D01*
X168409Y83840D01*
X168303Y84096D01*
X168135Y84315D01*
X167916Y84483D01*
X167660Y84589D01*
X167386Y84625D01*
D02*
G37*
G36*
X161036Y84640D02*
X160758Y84604D01*
X160499Y84496D01*
X160276Y84326D01*
X160106Y84103D01*
X159998Y83844D01*
X159962Y83566D01*
X159998Y83288D01*
X160106Y83029D01*
X160276Y82806D01*
X160499Y82636D01*
X160758Y82528D01*
X161036Y82492D01*
X161314Y82528D01*
X161573Y82636D01*
X161796Y82806D01*
X161966Y83029D01*
X162074Y83288D01*
X162110Y83566D01*
X162074Y83844D01*
X161966Y84103D01*
X161796Y84326D01*
X161573Y84496D01*
X161314Y84604D01*
X161036Y84640D01*
D02*
G37*
G36*
X148336D02*
X148058Y84604D01*
X147799Y84496D01*
X147576Y84326D01*
X147406Y84103D01*
X147298Y83844D01*
X147262Y83566D01*
X147298Y83288D01*
X147406Y83029D01*
X147576Y82806D01*
X147799Y82636D01*
X148058Y82528D01*
X148336Y82492D01*
X148614Y82528D01*
X148873Y82636D01*
X149096Y82806D01*
X149266Y83029D01*
X149374Y83288D01*
X149410Y83566D01*
X149374Y83844D01*
X149266Y84103D01*
X149096Y84326D01*
X148873Y84496D01*
X148614Y84604D01*
X148336Y84640D01*
D02*
G37*
G36*
X150876Y87049D02*
X150632Y87017D01*
X150404Y86923D01*
X150209Y86773D01*
X150059Y86578D01*
X149965Y86350D01*
X149933Y86106D01*
X149965Y85862D01*
X150059Y85634D01*
X150209Y85439D01*
X150404Y85289D01*
X150417Y85284D01*
Y81848D01*
X150404Y81843D01*
X150209Y81693D01*
X150059Y81498D01*
X149965Y81270D01*
X149933Y81026D01*
X149965Y80782D01*
X150059Y80554D01*
X150209Y80359D01*
X150404Y80209D01*
X150632Y80115D01*
X150876Y80083D01*
X151120Y80115D01*
X151348Y80209D01*
X151543Y80359D01*
X151693Y80554D01*
X151787Y80782D01*
X151819Y81026D01*
X151787Y81270D01*
X151693Y81498D01*
X151543Y81693D01*
X151348Y81843D01*
X151335Y81848D01*
Y85284D01*
X151348Y85289D01*
X151543Y85439D01*
X151693Y85634D01*
X151787Y85862D01*
X151819Y86106D01*
X151787Y86350D01*
X151693Y86578D01*
X151543Y86773D01*
X151348Y86923D01*
X151120Y87017D01*
X150876Y87049D01*
D02*
G37*
G36*
X167386Y82085D02*
X167112Y82049D01*
X166856Y81943D01*
X166637Y81775D01*
X166469Y81556D01*
X166363Y81300D01*
X166327Y81026D01*
X166363Y80752D01*
X166469Y80496D01*
X166637Y80277D01*
X166856Y80109D01*
X167112Y80003D01*
X167386Y79967D01*
X167660Y80003D01*
X167916Y80109D01*
X168135Y80277D01*
X168303Y80496D01*
X168409Y80752D01*
X168445Y81026D01*
X168409Y81300D01*
X168303Y81556D01*
X168135Y81775D01*
X167916Y81943D01*
X167660Y82049D01*
X167386Y82085D01*
D02*
G37*
G36*
X161036Y82100D02*
X160758Y82064D01*
X160499Y81956D01*
X160276Y81786D01*
X160106Y81563D01*
X159998Y81304D01*
X159962Y81026D01*
X159998Y80748D01*
X160106Y80489D01*
X160276Y80266D01*
X160499Y80096D01*
X160758Y79988D01*
X161036Y79952D01*
X161314Y79988D01*
X161573Y80096D01*
X161796Y80266D01*
X161966Y80489D01*
X162074Y80748D01*
X162110Y81026D01*
X162074Y81304D01*
X161966Y81563D01*
X161796Y81786D01*
X161573Y81956D01*
X161314Y82064D01*
X161036Y82100D01*
D02*
G37*
G36*
X148336D02*
X148058Y82064D01*
X147799Y81956D01*
X147576Y81786D01*
X147406Y81563D01*
X147298Y81304D01*
X147262Y81026D01*
X147298Y80748D01*
X147406Y80489D01*
X147576Y80266D01*
X147799Y80096D01*
X148058Y79988D01*
X148336Y79952D01*
X148614Y79988D01*
X148873Y80096D01*
X149096Y80266D01*
X149266Y80489D01*
X149374Y80748D01*
X149410Y81026D01*
X149374Y81304D01*
X149266Y81563D01*
X149096Y81786D01*
X148873Y81956D01*
X148614Y82064D01*
X148336Y82100D01*
D02*
G37*
G36*
X168436Y79536D02*
X166336D01*
Y77436D01*
X168436D01*
Y79536D01*
D02*
G37*
G36*
X161036Y79560D02*
X160758Y79524D01*
X160499Y79416D01*
X160276Y79246D01*
X160106Y79023D01*
X159998Y78764D01*
X159962Y78486D01*
X159998Y78208D01*
X160106Y77949D01*
X160276Y77726D01*
X160499Y77556D01*
X160758Y77448D01*
X161036Y77412D01*
X161314Y77448D01*
X161573Y77556D01*
X161796Y77726D01*
X161966Y77949D01*
X162074Y78208D01*
X162110Y78486D01*
X162074Y78764D01*
X161966Y79023D01*
X161796Y79246D01*
X161573Y79416D01*
X161314Y79524D01*
X161036Y79560D01*
D02*
G37*
G36*
X148336D02*
X148058Y79524D01*
X147799Y79416D01*
X147576Y79246D01*
X147406Y79023D01*
X147298Y78764D01*
X147262Y78486D01*
X147298Y78208D01*
X147406Y77949D01*
X147576Y77726D01*
X147799Y77556D01*
X148058Y77448D01*
X148336Y77412D01*
X148614Y77448D01*
X148873Y77556D01*
X149096Y77726D01*
X149266Y77949D01*
X149374Y78208D01*
X149410Y78486D01*
X149374Y78764D01*
X149266Y79023D01*
X149096Y79246D01*
X148873Y79416D01*
X148614Y79524D01*
X148336Y79560D01*
D02*
G37*
G36*
X142240Y77518D02*
X141962Y77482D01*
X141703Y77374D01*
X141480Y77204D01*
X141310Y76981D01*
X141202Y76722D01*
X141166Y76444D01*
X141202Y76166D01*
X141310Y75907D01*
X141480Y75684D01*
X141703Y75514D01*
X141962Y75406D01*
X142240Y75370D01*
X142518Y75406D01*
X142777Y75514D01*
X143000Y75684D01*
X143170Y75907D01*
X143278Y76166D01*
X143314Y76444D01*
X143278Y76722D01*
X143170Y76981D01*
X143000Y77204D01*
X142777Y77374D01*
X142518Y77482D01*
X142240Y77518D01*
D02*
G37*
G36*
X148336Y77020D02*
X148058Y76984D01*
X147799Y76876D01*
X147576Y76706D01*
X147406Y76483D01*
X147298Y76224D01*
X147262Y75946D01*
X147298Y75668D01*
X147406Y75409D01*
X147576Y75186D01*
X147799Y75016D01*
X148058Y74908D01*
X148336Y74872D01*
X148614Y74908D01*
X148873Y75016D01*
X149096Y75186D01*
X149266Y75409D01*
X149374Y75668D01*
X149410Y75946D01*
X149374Y76224D01*
X149266Y76483D01*
X149096Y76706D01*
X148873Y76876D01*
X148614Y76984D01*
X148336Y77020D01*
D02*
G37*
G36*
X161036Y77257D02*
X153416D01*
X153077Y77213D01*
X152760Y77082D01*
X152489Y76873D01*
X152280Y76602D01*
X152149Y76285D01*
X152105Y75946D01*
X152149Y75607D01*
X152280Y75290D01*
X152489Y75019D01*
X152760Y74810D01*
X153077Y74679D01*
X153416Y74635D01*
X161036D01*
X161375Y74679D01*
X161692Y74810D01*
X161963Y75019D01*
X162172Y75290D01*
X162303Y75607D01*
X162347Y75946D01*
X162303Y76285D01*
X162172Y76602D01*
X161963Y76873D01*
X161692Y77082D01*
X161375Y77213D01*
X161036Y77257D01*
D02*
G37*
G36*
X161163Y74417D02*
Y73533D01*
X162047D01*
X162029Y73672D01*
X161926Y73920D01*
X161763Y74133D01*
X161550Y74296D01*
X161302Y74399D01*
X161163Y74417D01*
D02*
G37*
G36*
X160909D02*
X160770Y74399D01*
X160522Y74296D01*
X160309Y74133D01*
X160146Y73920D01*
X160043Y73672D01*
X160025Y73533D01*
X160909D01*
Y74417D01*
D02*
G37*
G36*
X142240Y74978D02*
X141962Y74942D01*
X141703Y74834D01*
X141480Y74664D01*
X141310Y74441D01*
X141202Y74182D01*
X141166Y73904D01*
X141202Y73626D01*
X141310Y73367D01*
X141480Y73144D01*
X141703Y72974D01*
X141962Y72866D01*
X142240Y72830D01*
X142518Y72866D01*
X142777Y72974D01*
X143000Y73144D01*
X143170Y73367D01*
X143278Y73626D01*
X143314Y73904D01*
X143278Y74182D01*
X143170Y74441D01*
X143000Y74664D01*
X142777Y74834D01*
X142518Y74942D01*
X142240Y74978D01*
D02*
G37*
G36*
X162047Y73279D02*
X161163D01*
Y72395D01*
X161302Y72413D01*
X161550Y72516D01*
X161763Y72679D01*
X161926Y72892D01*
X162029Y73140D01*
X162047Y73279D01*
D02*
G37*
G36*
X160909D02*
X160025D01*
X160043Y73140D01*
X160146Y72892D01*
X160309Y72679D01*
X160522Y72516D01*
X160770Y72413D01*
X160909Y72395D01*
Y73279D01*
D02*
G37*
G36*
X148336Y74480D02*
X148058Y74444D01*
X147799Y74336D01*
X147576Y74166D01*
X147406Y73943D01*
X147298Y73684D01*
X147262Y73406D01*
X147298Y73128D01*
X147406Y72869D01*
X147576Y72646D01*
X147799Y72476D01*
X148058Y72368D01*
X148336Y72332D01*
X148614Y72368D01*
X148873Y72476D01*
X149096Y72646D01*
X149266Y72869D01*
X149374Y73128D01*
X149410Y73406D01*
X149374Y73684D01*
X149266Y73943D01*
X149096Y74166D01*
X148873Y74336D01*
X148614Y74444D01*
X148336Y74480D01*
D02*
G37*
G36*
X142240Y72438D02*
X141962Y72402D01*
X141703Y72294D01*
X141480Y72124D01*
X141310Y71901D01*
X141202Y71642D01*
X141166Y71364D01*
X141202Y71086D01*
X141310Y70827D01*
X141480Y70604D01*
X141703Y70434D01*
X141962Y70326D01*
X142240Y70290D01*
X142518Y70326D01*
X142777Y70434D01*
X143000Y70604D01*
X143170Y70827D01*
X143278Y71086D01*
X143314Y71364D01*
X143278Y71642D01*
X143170Y71901D01*
X143000Y72124D01*
X142777Y72294D01*
X142518Y72402D01*
X142240Y72438D01*
D02*
G37*
G36*
X149401Y66851D02*
X147271D01*
Y64721D01*
X149401D01*
Y66851D01*
D02*
G37*
G36*
X161036Y66860D02*
X160758Y66824D01*
X160499Y66716D01*
X160276Y66546D01*
X160106Y66323D01*
X159998Y66064D01*
X159962Y65786D01*
X159998Y65508D01*
X160106Y65249D01*
X160276Y65026D01*
X160499Y64856D01*
X160758Y64748D01*
X161036Y64712D01*
X161314Y64748D01*
X161573Y64856D01*
X161796Y65026D01*
X161966Y65249D01*
X162074Y65508D01*
X162110Y65786D01*
X162074Y66064D01*
X161966Y66323D01*
X161796Y66546D01*
X161573Y66716D01*
X161314Y66824D01*
X161036Y66860D01*
D02*
G37*
G36*
X161163Y64257D02*
Y63373D01*
X162047D01*
X162029Y63512D01*
X161926Y63760D01*
X161763Y63973D01*
X161550Y64136D01*
X161302Y64239D01*
X161163Y64257D01*
D02*
G37*
G36*
X160909D02*
X160770Y64239D01*
X160522Y64136D01*
X160309Y63973D01*
X160146Y63760D01*
X160043Y63512D01*
X160025Y63373D01*
X160909D01*
Y64257D01*
D02*
G37*
G36*
X158623D02*
Y63373D01*
X159507D01*
X159489Y63512D01*
X159386Y63760D01*
X159223Y63973D01*
X159010Y64136D01*
X158762Y64239D01*
X158623Y64257D01*
D02*
G37*
G36*
X158369D02*
X158230Y64239D01*
X157982Y64136D01*
X157769Y63973D01*
X157606Y63760D01*
X157503Y63512D01*
X157485Y63373D01*
X158369D01*
Y64257D01*
D02*
G37*
G36*
X162047Y63119D02*
X161163D01*
Y62235D01*
X161302Y62253D01*
X161550Y62356D01*
X161763Y62519D01*
X161926Y62732D01*
X162029Y62980D01*
X162047Y63119D01*
D02*
G37*
G36*
X160909D02*
X160025D01*
X160043Y62980D01*
X160146Y62732D01*
X160309Y62519D01*
X160522Y62356D01*
X160770Y62253D01*
X160909Y62235D01*
Y63119D01*
D02*
G37*
G36*
X159507D02*
X158623D01*
Y62235D01*
X158762Y62253D01*
X159010Y62356D01*
X159223Y62519D01*
X159386Y62732D01*
X159489Y62980D01*
X159507Y63119D01*
D02*
G37*
G36*
X158369D02*
X157485D01*
X157503Y62980D01*
X157606Y62732D01*
X157769Y62519D01*
X157982Y62356D01*
X158230Y62253D01*
X158369Y62235D01*
Y63119D01*
D02*
G37*
G36*
X155956Y64320D02*
X155678Y64284D01*
X155419Y64176D01*
X155196Y64006D01*
X155026Y63783D01*
X154918Y63524D01*
X154882Y63246D01*
X154918Y62968D01*
X155026Y62709D01*
X155196Y62486D01*
X155419Y62316D01*
X155678Y62208D01*
X155956Y62172D01*
X156234Y62208D01*
X156493Y62316D01*
X156716Y62486D01*
X156886Y62709D01*
X156994Y62968D01*
X157030Y63246D01*
X156994Y63524D01*
X156886Y63783D01*
X156716Y64006D01*
X156493Y64176D01*
X156234Y64284D01*
X155956Y64320D01*
D02*
G37*
G36*
X148336D02*
X148058Y64284D01*
X147799Y64176D01*
X147576Y64006D01*
X147406Y63783D01*
X147298Y63524D01*
X147262Y63246D01*
X147298Y62968D01*
X147406Y62709D01*
X147576Y62486D01*
X147799Y62316D01*
X148058Y62208D01*
X148336Y62172D01*
X148614Y62208D01*
X148873Y62316D01*
X149096Y62486D01*
X149266Y62709D01*
X149374Y62968D01*
X149410Y63246D01*
X149374Y63524D01*
X149266Y63783D01*
X149096Y64006D01*
X148873Y64176D01*
X148614Y64284D01*
X148336Y64320D01*
D02*
G37*
G36*
X167386Y61765D02*
X167112Y61729D01*
X166856Y61623D01*
X166637Y61455D01*
X166469Y61236D01*
X166363Y60980D01*
X166327Y60706D01*
X166363Y60432D01*
X166469Y60176D01*
X166637Y59957D01*
X166856Y59789D01*
X167112Y59683D01*
X167386Y59647D01*
X167660Y59683D01*
X167916Y59789D01*
X168135Y59957D01*
X168303Y60176D01*
X168409Y60432D01*
X168445Y60706D01*
X168409Y60980D01*
X168303Y61236D01*
X168135Y61455D01*
X167916Y61623D01*
X167660Y61729D01*
X167386Y61765D01*
D02*
G37*
G36*
X161036Y61780D02*
X160758Y61744D01*
X160499Y61636D01*
X160276Y61466D01*
X160106Y61243D01*
X159998Y60984D01*
X159962Y60706D01*
X159998Y60428D01*
X160106Y60169D01*
X160276Y59946D01*
X160499Y59776D01*
X160758Y59668D01*
X161036Y59632D01*
X161314Y59668D01*
X161573Y59776D01*
X161796Y59946D01*
X161966Y60169D01*
X162074Y60428D01*
X162110Y60706D01*
X162074Y60984D01*
X161966Y61243D01*
X161796Y61466D01*
X161573Y61636D01*
X161314Y61744D01*
X161036Y61780D01*
D02*
G37*
G36*
X139573Y58069D02*
Y57150D01*
X140492D01*
X140473Y57298D01*
X140367Y57555D01*
X140198Y57775D01*
X139978Y57944D01*
X139721Y58050D01*
X139573Y58069D01*
D02*
G37*
G36*
X139319D02*
X139171Y58050D01*
X138914Y57944D01*
X138694Y57775D01*
X138525Y57555D01*
X138419Y57298D01*
X138400Y57150D01*
X139319D01*
Y58069D01*
D02*
G37*
G36*
X167386Y59225D02*
X167112Y59189D01*
X166856Y59083D01*
X166637Y58915D01*
X166469Y58696D01*
X166363Y58440D01*
X166327Y58166D01*
X166363Y57892D01*
X166469Y57636D01*
X166637Y57417D01*
X166856Y57249D01*
X167112Y57143D01*
X167386Y57107D01*
X167660Y57143D01*
X167916Y57249D01*
X168135Y57417D01*
X168303Y57636D01*
X168409Y57892D01*
X168445Y58166D01*
X168409Y58440D01*
X168303Y58696D01*
X168135Y58915D01*
X167916Y59083D01*
X167660Y59189D01*
X167386Y59225D01*
D02*
G37*
G36*
X161036Y59240D02*
X160758Y59204D01*
X160499Y59096D01*
X160276Y58926D01*
X160106Y58703D01*
X159998Y58444D01*
X159962Y58166D01*
X159998Y57888D01*
X160106Y57629D01*
X160276Y57406D01*
X160499Y57236D01*
X160758Y57128D01*
X161036Y57092D01*
X161314Y57128D01*
X161573Y57236D01*
X161796Y57406D01*
X161966Y57629D01*
X162074Y57888D01*
X162110Y58166D01*
X162074Y58444D01*
X161966Y58703D01*
X161796Y58926D01*
X161573Y59096D01*
X161314Y59204D01*
X161036Y59240D01*
D02*
G37*
G36*
X148336D02*
X148058Y59204D01*
X147799Y59096D01*
X147576Y58926D01*
X147406Y58703D01*
X147298Y58444D01*
X147262Y58166D01*
X147298Y57888D01*
X147406Y57629D01*
X147576Y57406D01*
X147799Y57236D01*
X148058Y57128D01*
X148336Y57092D01*
X148614Y57128D01*
X148873Y57236D01*
X149096Y57406D01*
X149266Y57629D01*
X149374Y57888D01*
X149410Y58166D01*
X149374Y58444D01*
X149266Y58703D01*
X149096Y58926D01*
X148873Y59096D01*
X148614Y59204D01*
X148336Y59240D01*
D02*
G37*
G36*
X140492Y56896D02*
X139573D01*
Y55977D01*
X139721Y55996D01*
X139978Y56102D01*
X140198Y56271D01*
X140367Y56491D01*
X140473Y56748D01*
X140492Y56896D01*
D02*
G37*
G36*
X139319D02*
X138400D01*
X138419Y56748D01*
X138525Y56491D01*
X138694Y56271D01*
X138914Y56102D01*
X139171Y55996D01*
X139319Y55977D01*
Y56896D01*
D02*
G37*
G36*
X138006Y58123D02*
X135806D01*
Y55923D01*
X138006D01*
Y58123D01*
D02*
G37*
G36*
X121539Y57193D02*
X121265Y57157D01*
X121009Y57051D01*
X120790Y56883D01*
X120622Y56664D01*
X120516Y56408D01*
X120480Y56134D01*
X120516Y55860D01*
X120622Y55604D01*
X120790Y55385D01*
X121009Y55217D01*
X121265Y55111D01*
X121539Y55075D01*
X121813Y55111D01*
X122069Y55217D01*
X122288Y55385D01*
X122456Y55604D01*
X122562Y55860D01*
X122598Y56134D01*
X122562Y56408D01*
X122456Y56664D01*
X122288Y56883D01*
X122069Y57051D01*
X121813Y57157D01*
X121539Y57193D01*
D02*
G37*
G36*
X118999D02*
X118725Y57157D01*
X118469Y57051D01*
X118250Y56883D01*
X118082Y56664D01*
X117976Y56408D01*
X117940Y56134D01*
X117976Y55860D01*
X118082Y55604D01*
X118250Y55385D01*
X118469Y55217D01*
X118725Y55111D01*
X118999Y55075D01*
X119273Y55111D01*
X119529Y55217D01*
X119748Y55385D01*
X119916Y55604D01*
X120022Y55860D01*
X120058Y56134D01*
X120022Y56408D01*
X119916Y56664D01*
X119748Y56883D01*
X119529Y57051D01*
X119273Y57157D01*
X118999Y57193D01*
D02*
G37*
G36*
X167386Y56685D02*
X167112Y56649D01*
X166856Y56543D01*
X166637Y56375D01*
X166469Y56156D01*
X166363Y55900D01*
X166327Y55626D01*
X166363Y55352D01*
X166469Y55096D01*
X166637Y54877D01*
X166856Y54709D01*
X167112Y54603D01*
X167386Y54567D01*
X167660Y54603D01*
X167916Y54709D01*
X168135Y54877D01*
X168303Y55096D01*
X168409Y55352D01*
X168445Y55626D01*
X168409Y55900D01*
X168303Y56156D01*
X168135Y56375D01*
X167916Y56543D01*
X167660Y56649D01*
X167386Y56685D01*
D02*
G37*
G36*
X161036Y56700D02*
X160758Y56664D01*
X160499Y56556D01*
X160276Y56386D01*
X160106Y56163D01*
X159998Y55904D01*
X159962Y55626D01*
X159998Y55348D01*
X160106Y55089D01*
X160276Y54866D01*
X160499Y54696D01*
X160758Y54588D01*
X161036Y54552D01*
X161314Y54588D01*
X161573Y54696D01*
X161796Y54866D01*
X161966Y55089D01*
X162074Y55348D01*
X162110Y55626D01*
X162074Y55904D01*
X161966Y56163D01*
X161796Y56386D01*
X161573Y56556D01*
X161314Y56664D01*
X161036Y56700D01*
D02*
G37*
G36*
X148336D02*
X148058Y56664D01*
X147799Y56556D01*
X147576Y56386D01*
X147406Y56163D01*
X147298Y55904D01*
X147262Y55626D01*
X147298Y55348D01*
X147406Y55089D01*
X147576Y54866D01*
X147799Y54696D01*
X148058Y54588D01*
X148336Y54552D01*
X148614Y54588D01*
X148873Y54696D01*
X149096Y54866D01*
X149266Y55089D01*
X149374Y55348D01*
X149410Y55626D01*
X149374Y55904D01*
X149266Y56163D01*
X149096Y56386D01*
X148873Y56556D01*
X148614Y56664D01*
X148336Y56700D01*
D02*
G37*
G36*
X121539Y54653D02*
X121265Y54617D01*
X121009Y54511D01*
X120790Y54343D01*
X120622Y54124D01*
X120516Y53868D01*
X120480Y53594D01*
X120516Y53320D01*
X120622Y53064D01*
X120790Y52845D01*
X121009Y52677D01*
X121265Y52571D01*
X121539Y52535D01*
X121813Y52571D01*
X122069Y52677D01*
X122288Y52845D01*
X122456Y53064D01*
X122562Y53320D01*
X122598Y53594D01*
X122562Y53868D01*
X122456Y54124D01*
X122288Y54343D01*
X122069Y54511D01*
X121813Y54617D01*
X121539Y54653D01*
D02*
G37*
G36*
X118999D02*
X118725Y54617D01*
X118469Y54511D01*
X118250Y54343D01*
X118082Y54124D01*
X117976Y53868D01*
X117940Y53594D01*
X117976Y53320D01*
X118082Y53064D01*
X118250Y52845D01*
X118469Y52677D01*
X118725Y52571D01*
X118999Y52535D01*
X119273Y52571D01*
X119529Y52677D01*
X119748Y52845D01*
X119916Y53064D01*
X120022Y53320D01*
X120058Y53594D01*
X120022Y53868D01*
X119916Y54124D01*
X119748Y54343D01*
X119529Y54511D01*
X119273Y54617D01*
X118999Y54653D01*
D02*
G37*
G36*
X168436Y54136D02*
X166336D01*
Y52036D01*
X168436D01*
Y54136D01*
D02*
G37*
G36*
X161036Y54160D02*
X160758Y54124D01*
X160499Y54016D01*
X160276Y53846D01*
X160106Y53623D01*
X159998Y53364D01*
X159962Y53086D01*
X159998Y52808D01*
X160106Y52549D01*
X160276Y52326D01*
X160499Y52156D01*
X160758Y52048D01*
X161036Y52012D01*
X161314Y52048D01*
X161573Y52156D01*
X161796Y52326D01*
X161966Y52549D01*
X162074Y52808D01*
X162110Y53086D01*
X162074Y53364D01*
X161966Y53623D01*
X161796Y53846D01*
X161573Y54016D01*
X161314Y54124D01*
X161036Y54160D01*
D02*
G37*
G36*
X148336D02*
X148058Y54124D01*
X147799Y54016D01*
X147576Y53846D01*
X147406Y53623D01*
X147298Y53364D01*
X147262Y53086D01*
X147298Y52808D01*
X147406Y52549D01*
X147576Y52326D01*
X147799Y52156D01*
X148058Y52048D01*
X148336Y52012D01*
X148614Y52048D01*
X148873Y52156D01*
X149096Y52326D01*
X149266Y52549D01*
X149374Y52808D01*
X149410Y53086D01*
X149374Y53364D01*
X149266Y53623D01*
X149096Y53846D01*
X148873Y54016D01*
X148614Y54124D01*
X148336Y54160D01*
D02*
G37*
G36*
X145669Y62017D02*
X145330Y61973D01*
X145013Y61842D01*
X144742Y61633D01*
X144742Y61633D01*
X141059Y57950D01*
X140850Y57679D01*
X140719Y57362D01*
X140675Y57023D01*
X140719Y56684D01*
X140850Y56367D01*
X140927Y56268D01*
Y54033D01*
X138753Y51859D01*
X132715D01*
X132715Y51859D01*
X132441Y51823D01*
X132185Y51717D01*
X131966Y51549D01*
X131966Y51549D01*
X127831Y47414D01*
X121825D01*
X121801Y47536D01*
X122045Y47637D01*
X122255Y47798D01*
X122416Y48008D01*
X122517Y48252D01*
X122535Y48387D01*
X120543D01*
X120561Y48252D01*
X120662Y48008D01*
X120823Y47798D01*
X121033Y47637D01*
X121277Y47536D01*
X121253Y47414D01*
X120200D01*
X120058Y47556D01*
Y48514D01*
X120049Y48583D01*
Y49564D01*
X119068D01*
X118999Y49573D01*
X118930Y49564D01*
X117949D01*
Y48583D01*
X117940Y48514D01*
Y47117D01*
X117940Y47117D01*
X117976Y46843D01*
X118082Y46587D01*
X118250Y46368D01*
X119012Y45606D01*
X119231Y45438D01*
X119487Y45332D01*
X119761Y45296D01*
X119761Y45296D01*
X128270D01*
X128270Y45296D01*
X128544Y45332D01*
X128800Y45438D01*
X129019Y45606D01*
X133154Y49741D01*
X139192D01*
X139192Y49741D01*
X139466Y49777D01*
X139722Y49883D01*
X139941Y50051D01*
X142735Y52845D01*
X142903Y53064D01*
X143009Y53320D01*
X143045Y53594D01*
X143045Y53594D01*
Y56228D01*
X146212Y59395D01*
X148336D01*
X148675Y59439D01*
X148992Y59570D01*
X149263Y59779D01*
X149472Y60050D01*
X149603Y60367D01*
X149647Y60706D01*
X149603Y61045D01*
X149472Y61362D01*
X149263Y61633D01*
X148992Y61842D01*
X148675Y61973D01*
X148336Y62017D01*
X145669D01*
X145669Y62017D01*
D02*
G37*
G36*
X121539Y52113D02*
X121265Y52077D01*
X121009Y51971D01*
X120790Y51803D01*
X120622Y51584D01*
X120516Y51328D01*
X120480Y51054D01*
X120516Y50780D01*
X120622Y50524D01*
X120790Y50305D01*
X121009Y50137D01*
X121265Y50031D01*
X121539Y49995D01*
X121813Y50031D01*
X122069Y50137D01*
X122288Y50305D01*
X122456Y50524D01*
X122562Y50780D01*
X122598Y51054D01*
X122562Y51328D01*
X122456Y51584D01*
X122288Y51803D01*
X122069Y51971D01*
X121813Y52077D01*
X121539Y52113D01*
D02*
G37*
G36*
X118999D02*
X118725Y52077D01*
X118469Y51971D01*
X118250Y51803D01*
X118082Y51584D01*
X117976Y51328D01*
X117940Y51054D01*
X117976Y50780D01*
X118082Y50524D01*
X118250Y50305D01*
X118469Y50137D01*
X118725Y50031D01*
X118999Y49995D01*
X119273Y50031D01*
X119529Y50137D01*
X119748Y50305D01*
X119916Y50524D01*
X120022Y50780D01*
X120058Y51054D01*
X120022Y51328D01*
X119916Y51584D01*
X119748Y51803D01*
X119529Y51971D01*
X119273Y52077D01*
X118999Y52113D01*
D02*
G37*
G36*
X148336Y51620D02*
X148058Y51584D01*
X147799Y51476D01*
X147576Y51306D01*
X147406Y51083D01*
X147298Y50824D01*
X147262Y50546D01*
X147298Y50268D01*
X147406Y50009D01*
X147576Y49786D01*
X147799Y49616D01*
X148058Y49508D01*
X148336Y49472D01*
X148614Y49508D01*
X148873Y49616D01*
X149096Y49786D01*
X149266Y50009D01*
X149374Y50268D01*
X149410Y50546D01*
X149374Y50824D01*
X149266Y51083D01*
X149096Y51306D01*
X148873Y51476D01*
X148614Y51584D01*
X148336Y51620D01*
D02*
G37*
G36*
X161036Y51857D02*
X153416D01*
X153077Y51813D01*
X152760Y51682D01*
X152489Y51473D01*
X152280Y51202D01*
X152149Y50885D01*
X152105Y50546D01*
X152149Y50207D01*
X152280Y49890D01*
X152489Y49619D01*
X152760Y49410D01*
X153077Y49279D01*
X153416Y49235D01*
X161036D01*
X161375Y49279D01*
X161692Y49410D01*
X161963Y49619D01*
X162172Y49890D01*
X162303Y50207D01*
X162347Y50546D01*
X162303Y50885D01*
X162172Y51202D01*
X161963Y51473D01*
X161692Y51682D01*
X161375Y51813D01*
X161036Y51857D01*
D02*
G37*
G36*
X121666Y49510D02*
Y48641D01*
X122535D01*
X122517Y48776D01*
X122416Y49020D01*
X122255Y49230D01*
X122045Y49391D01*
X121801Y49492D01*
X121666Y49510D01*
D02*
G37*
G36*
X121412D02*
X121277Y49492D01*
X121033Y49391D01*
X120823Y49230D01*
X120662Y49020D01*
X120561Y48776D01*
X120543Y48641D01*
X121412D01*
Y49510D01*
D02*
G37*
G36*
X161163Y49017D02*
Y48133D01*
X162047D01*
X162029Y48272D01*
X161926Y48520D01*
X161763Y48733D01*
X161550Y48896D01*
X161302Y48999D01*
X161163Y49017D01*
D02*
G37*
G36*
X160909D02*
X160770Y48999D01*
X160522Y48896D01*
X160309Y48733D01*
X160146Y48520D01*
X160043Y48272D01*
X160025Y48133D01*
X160909D01*
Y49017D01*
D02*
G37*
G36*
X137800Y48616D02*
Y47596D01*
X138820D01*
X138797Y47770D01*
X138681Y48051D01*
X138496Y48292D01*
X138255Y48477D01*
X137974Y48593D01*
X137800Y48616D01*
D02*
G37*
G36*
X137546D02*
X137372Y48593D01*
X137091Y48477D01*
X136850Y48292D01*
X136665Y48051D01*
X136549Y47770D01*
X136526Y47596D01*
X137546D01*
Y48616D01*
D02*
G37*
G36*
X162047Y47879D02*
X161163D01*
Y46995D01*
X161302Y47013D01*
X161550Y47116D01*
X161763Y47279D01*
X161926Y47492D01*
X162029Y47740D01*
X162047Y47879D01*
D02*
G37*
G36*
X160909D02*
X160025D01*
X160043Y47740D01*
X160146Y47492D01*
X160309Y47279D01*
X160522Y47116D01*
X160770Y47013D01*
X160909Y46995D01*
Y47879D01*
D02*
G37*
G36*
X148336Y49080D02*
X148058Y49044D01*
X147799Y48936D01*
X147576Y48766D01*
X147406Y48543D01*
X147298Y48284D01*
X147262Y48006D01*
X147298Y47728D01*
X147406Y47469D01*
X147576Y47246D01*
X147799Y47076D01*
X148058Y46968D01*
X148336Y46932D01*
X148614Y46968D01*
X148873Y47076D01*
X149096Y47246D01*
X149266Y47469D01*
X149374Y47728D01*
X149410Y48006D01*
X149374Y48284D01*
X149266Y48543D01*
X149096Y48766D01*
X148873Y48936D01*
X148614Y49044D01*
X148336Y49080D01*
D02*
G37*
G36*
X138820Y47342D02*
X137800D01*
Y46322D01*
X137974Y46345D01*
X138255Y46461D01*
X138496Y46646D01*
X138681Y46887D01*
X138797Y47168D01*
X138820Y47342D01*
D02*
G37*
G36*
X137546D02*
X136526D01*
X136549Y47168D01*
X136665Y46887D01*
X136850Y46646D01*
X137091Y46461D01*
X137372Y46345D01*
X137546Y46322D01*
Y47342D01*
D02*
G37*
G36*
X141483Y48679D02*
X141170Y48638D01*
X140878Y48517D01*
X140627Y48325D01*
X140435Y48074D01*
X140314Y47782D01*
X140273Y47469D01*
X140314Y47156D01*
X140435Y46864D01*
X140627Y46613D01*
X140878Y46421D01*
X141170Y46300D01*
X141483Y46259D01*
X141796Y46300D01*
X142088Y46421D01*
X142339Y46613D01*
X142531Y46864D01*
X142652Y47156D01*
X142693Y47469D01*
X142652Y47782D01*
X142531Y48074D01*
X142339Y48325D01*
X142088Y48517D01*
X141796Y48638D01*
X141483Y48679D01*
D02*
G37*
G36*
X169000Y47655D02*
X168628Y47618D01*
X168269Y47510D01*
X167939Y47333D01*
X167650Y47096D01*
X167413Y46807D01*
X167236Y46477D01*
X167127Y46118D01*
X167091Y45746D01*
X167127Y45374D01*
X167236Y45015D01*
X167413Y44685D01*
X167650Y44396D01*
X167939Y44159D01*
X168269Y43982D01*
X168628Y43873D01*
X169000Y43837D01*
X169372Y43873D01*
X169731Y43982D01*
X170061Y44159D01*
X170350Y44396D01*
X170587Y44685D01*
X170764Y45015D01*
X170873Y45374D01*
X170909Y45746D01*
X170873Y46118D01*
X170764Y46477D01*
X170587Y46807D01*
X170350Y47096D01*
X170061Y47333D01*
X169731Y47510D01*
X169372Y47618D01*
X169000Y47655D01*
D02*
G37*
G36*
X112000D02*
X111628Y47618D01*
X111269Y47510D01*
X110939Y47333D01*
X110650Y47096D01*
X110413Y46807D01*
X110236Y46477D01*
X110127Y46118D01*
X110091Y45746D01*
X110127Y45374D01*
X110236Y45015D01*
X110413Y44685D01*
X110650Y44396D01*
X110939Y44159D01*
X111269Y43982D01*
X111628Y43873D01*
X112000Y43837D01*
X112372Y43873D01*
X112731Y43982D01*
X113061Y44159D01*
X113350Y44396D01*
X113587Y44685D01*
X113764Y45015D01*
X113873Y45374D01*
X113909Y45746D01*
X113873Y46118D01*
X113764Y46477D01*
X113587Y46807D01*
X113350Y47096D01*
X113061Y47333D01*
X112731Y47510D01*
X112372Y47618D01*
X112000Y47655D01*
D02*
G37*
%LPD*%
D48*
X130937Y104775D02*
X132588Y106426D01*
X133350Y105664D01*
X130937Y92583D02*
Y104775D01*
X130487Y104961D02*
X140520Y114994D01*
X130487Y102039D02*
Y104961D01*
X140520Y114994D02*
X140775D01*
X130487Y92397D02*
X134366Y88518D01*
X130037Y92210D02*
X133916Y88331D01*
X130487Y92397D02*
Y97479D01*
X130037Y92210D02*
Y97293D01*
X134366Y84836D02*
Y88518D01*
X133916Y84513D02*
Y88331D01*
X134366Y84836D02*
X135382Y83820D01*
X132588Y106426D02*
X140706Y114544D01*
X122740Y62415D02*
Y66734D01*
X121539Y61214D02*
X122740Y62415D01*
X139827Y84452D02*
Y89271D01*
X139377Y84639D02*
Y92628D01*
X134679Y79941D02*
X139377Y84639D01*
X134866Y79491D02*
X139827Y84452D01*
X122740Y66734D02*
X135047Y79041D01*
X133474Y78105D02*
X134860Y79491D01*
X135632Y78984D02*
X142240D01*
X135239Y78591D02*
X135632Y78984D01*
X135233Y78591D02*
X135239D01*
X123190Y66548D02*
X135233Y78591D01*
X137535Y81524D02*
X142240D01*
X135052Y79041D02*
X137535Y81524D01*
X135047Y79041D02*
X135052D01*
X134860Y79491D02*
X134866D01*
X134674Y79941D02*
X134679D01*
X133981Y79248D02*
X134674Y79941D01*
X137160Y83058D02*
Y86614D01*
X134493Y80391D02*
X137160Y83058D01*
X131318Y80391D02*
X134493D01*
X132461Y79248D02*
X133981D01*
X130429Y78105D02*
X133474D01*
X137160Y86614D02*
X137841Y87295D01*
X139954Y98044D02*
X141732D01*
X139319Y98679D02*
X139954Y98044D01*
X139319Y98679D02*
Y99314D01*
X142240Y96764D02*
Y97536D01*
X141732Y98044D02*
X142240Y97536D01*
X137841Y92365D02*
X142240Y96764D01*
X133604Y84201D02*
X133916Y84513D01*
X130937Y92583D02*
X135763Y87757D01*
Y87693D02*
Y87757D01*
X128778Y100330D02*
X130487Y102039D01*
X140775Y114994D02*
X141732Y115951D01*
X140706Y114544D02*
X142240D01*
X141732Y115951D02*
X142875D01*
X129794Y98172D02*
X130487Y97479D01*
X129794Y98172D02*
Y99568D01*
X128778Y98552D02*
X130037Y97293D01*
X128778Y98552D02*
Y100330D01*
X144145Y98806D02*
X144907Y99568D01*
X144145Y96129D02*
Y98806D01*
X142240Y94224D02*
X144145Y96129D01*
X143637Y96266D02*
Y102987D01*
X142875Y95504D02*
X143637Y96266D01*
X140973Y94224D02*
X142240D01*
X139377Y92628D02*
X140973Y94224D01*
X141616Y95504D02*
X142875D01*
X138291Y92179D02*
X141616Y95504D01*
X138291Y85967D02*
Y92179D01*
X137841Y87295D02*
Y92365D01*
X139827Y89271D02*
X142240Y91684D01*
X123190Y60706D02*
Y66548D01*
X138176Y85852D02*
X138291Y85967D01*
X143637Y113401D02*
Y115189D01*
X142875Y115951D02*
X143637Y115189D01*
X142240Y112004D02*
X143637Y113401D01*
X133604Y82931D02*
Y84201D01*
X144516Y86604D02*
X145542Y87630D01*
X142240Y86604D02*
X144516D01*
X122428Y59944D02*
X123190Y60706D01*
X120269Y59944D02*
X122428D01*
X118999Y61214D02*
X120269Y59944D01*
X115189Y87493D02*
X116840Y89144D01*
X115189Y62484D02*
Y87493D01*
Y62484D02*
X118999Y58674D01*
X140589Y92710D02*
X140779Y92520D01*
X141224Y92964D01*
X143256D01*
X140589Y92329D02*
Y92710D01*
X142240Y104384D02*
X143637Y102987D01*
X143256Y92964D02*
X144780Y91440D01*
X145542Y87630D02*
Y90043D01*
X146685Y91186D02*
X148336D01*
X145542Y90043D02*
X146685Y91186D01*
X150876Y106426D02*
Y111506D01*
Y81026D02*
Y86106D01*
D49*
X123698Y104394D02*
X123825Y104521D01*
D50*
X145669Y60706D02*
X148336D01*
X141986Y57023D02*
X145669Y60706D01*
X153416Y101346D02*
X161036D01*
X153416Y75946D02*
X161036D01*
X153416Y50546D02*
X161036D01*
D51*
X141986Y53594D02*
Y57023D01*
X139192Y50800D02*
X141986Y53594D01*
X132715Y50800D02*
X139192D01*
X128270Y46355D02*
X132715Y50800D01*
X119761Y46355D02*
X128270D01*
X118999Y47117D02*
X119761Y46355D01*
X118999Y47117D02*
Y48514D01*
D54*
X142240Y117084D02*
D03*
Y114544D02*
D03*
Y112004D02*
D03*
Y109464D02*
D03*
Y106924D02*
D03*
Y104384D02*
D03*
Y101844D02*
D03*
Y99304D02*
D03*
Y96764D02*
D03*
Y94224D02*
D03*
Y91684D02*
D03*
Y89144D02*
D03*
Y86604D02*
D03*
Y84064D02*
D03*
Y81524D02*
D03*
Y78984D02*
D03*
Y76444D02*
D03*
Y73904D02*
D03*
Y71364D02*
D03*
X116840D02*
D03*
Y73904D02*
D03*
Y76444D02*
D03*
Y78984D02*
D03*
Y81524D02*
D03*
Y84064D02*
D03*
Y86604D02*
D03*
Y89144D02*
D03*
Y91684D02*
D03*
Y94224D02*
D03*
Y96764D02*
D03*
Y99304D02*
D03*
Y101844D02*
D03*
Y104384D02*
D03*
Y106924D02*
D03*
Y109464D02*
D03*
Y112004D02*
D03*
Y114544D02*
D03*
X161036Y65786D02*
D03*
Y63246D02*
D03*
Y60706D02*
D03*
Y58166D02*
D03*
Y55626D02*
D03*
Y53086D02*
D03*
Y50546D02*
D03*
Y48006D02*
D03*
X148336D02*
D03*
Y50546D02*
D03*
Y53086D02*
D03*
Y55626D02*
D03*
Y58166D02*
D03*
Y60706D02*
D03*
Y63246D02*
D03*
X161036Y116586D02*
D03*
Y114046D02*
D03*
Y111506D02*
D03*
Y108966D02*
D03*
Y106426D02*
D03*
Y103886D02*
D03*
Y101346D02*
D03*
Y98806D02*
D03*
X148336D02*
D03*
Y101346D02*
D03*
Y103886D02*
D03*
Y106426D02*
D03*
Y108966D02*
D03*
Y111506D02*
D03*
Y114046D02*
D03*
X161036Y91186D02*
D03*
Y88646D02*
D03*
Y86106D02*
D03*
Y83566D02*
D03*
Y81026D02*
D03*
Y78486D02*
D03*
Y75946D02*
D03*
Y73406D02*
D03*
X148336D02*
D03*
Y75946D02*
D03*
Y78486D02*
D03*
Y81026D02*
D03*
Y83566D02*
D03*
Y86106D02*
D03*
Y88646D02*
D03*
X158496Y63246D02*
D03*
X155956D02*
D03*
X158496Y88646D02*
D03*
X155956D02*
D03*
Y114046D02*
D03*
X158496D02*
D03*
D55*
X116840Y117084D02*
D03*
X148336Y65786D02*
D03*
Y116586D02*
D03*
Y91186D02*
D03*
D56*
X121539Y61214D02*
D03*
X118999D02*
D03*
X121539Y58674D02*
D03*
X118999D02*
D03*
X121539Y56134D02*
D03*
X118999D02*
D03*
X121539Y53594D02*
D03*
X118999D02*
D03*
X121539Y51054D02*
D03*
X118999D02*
D03*
X121539Y48514D02*
D03*
X111760Y99568D02*
D03*
Y104648D02*
D03*
Y109728D02*
D03*
Y89408D02*
D03*
Y94488D02*
D03*
X145288Y105664D02*
D03*
Y103124D02*
D03*
X167386Y60706D02*
D03*
Y58166D02*
D03*
Y55626D02*
D03*
Y111506D02*
D03*
Y108966D02*
D03*
Y106426D02*
D03*
Y86106D02*
D03*
Y83566D02*
D03*
Y81026D02*
D03*
X111760Y84328D02*
D03*
D57*
X118999Y48514D02*
D03*
X111760Y102108D02*
D03*
Y107188D02*
D03*
Y112268D02*
D03*
Y91948D02*
D03*
Y97028D02*
D03*
X145288Y108204D02*
D03*
X167386Y53086D02*
D03*
Y103886D02*
D03*
Y78486D02*
D03*
X111760Y86868D02*
D03*
D58*
X141986Y57023D02*
D03*
X139446D02*
D03*
D59*
X136906D02*
D03*
D60*
X137673Y47469D02*
D03*
X141483D02*
D03*
D61*
X169000Y119746D02*
D03*
X112000D02*
D03*
Y45746D02*
D03*
X169000D02*
D03*
D62*
X133350Y105664D02*
D03*
X130810Y116840D02*
D03*
X124460Y109220D02*
D03*
Y100330D02*
D03*
X148590Y95250D02*
D03*
X160020D02*
D03*
X165100D02*
D03*
Y69850D02*
D03*
X160020D02*
D03*
X158750Y48260D02*
D03*
Y59690D02*
D03*
Y53340D02*
D03*
X151130Y58420D02*
D03*
Y53340D02*
D03*
Y48260D02*
D03*
X144780D02*
D03*
X133350D02*
D03*
X125730Y49530D02*
D03*
X114300Y54610D02*
D03*
Y59690D02*
D03*
X120650Y64770D02*
D03*
X137160Y63500D02*
D03*
X130810D02*
D03*
X139700Y69850D02*
D03*
X135890Y67310D02*
D03*
X130810Y68580D02*
D03*
X134620Y72390D02*
D03*
X138430Y76200D02*
D03*
X135890Y90170D02*
D03*
X128270Y87630D02*
D03*
X124460Y80010D02*
D03*
Y74930D02*
D03*
X120650Y69850D02*
D03*
Y74930D02*
D03*
Y80010D02*
D03*
X111760Y49530D02*
D03*
X115570Y44450D02*
D03*
X154940D02*
D03*
X160020D02*
D03*
X165100D02*
D03*
X170180Y53340D02*
D03*
Y58420D02*
D03*
Y63500D02*
D03*
Y68580D02*
D03*
Y73660D02*
D03*
Y78740D02*
D03*
Y83820D02*
D03*
Y88900D02*
D03*
Y93980D02*
D03*
Y99060D02*
D03*
Y104140D02*
D03*
Y109220D02*
D03*
Y115570D02*
D03*
X113030D02*
D03*
X115570Y120650D02*
D03*
X125730Y114300D02*
D03*
X134620Y111760D02*
D03*
X135890Y116840D02*
D03*
X165100Y120650D02*
D03*
X160020D02*
D03*
X153670D02*
D03*
X147320D02*
D03*
X151003Y64897D02*
D03*
X148844Y69723D02*
D03*
X131318Y80391D02*
D03*
X132461Y79248D02*
D03*
X135763Y87693D02*
D03*
X139319Y99314D02*
D03*
X135382Y83820D02*
D03*
X130429Y78105D02*
D03*
X138176Y85852D02*
D03*
X140589Y92329D02*
D03*
X133604Y82931D02*
D03*
X129794Y99568D02*
D03*
X144907D02*
D03*
X144780Y91440D02*
D03*
X127904Y106695D02*
D03*
X131304Y110222D02*
D03*
X119253Y120650D02*
D03*
X121698Y92361D02*
D03*
X123698Y104394D02*
D03*
X150876Y81026D02*
D03*
Y106426D02*
D03*
Y111506D02*
D03*
Y86106D02*
D03*
X153416Y101346D02*
D03*
Y75946D02*
D03*
Y50546D02*
D03*
X124460Y115570D02*
D03*
X118999Y87122D02*
D03*
M02*
