M48
;Layer_Color=9474304
;FILE_FORMAT=4:3
METRIC,TZ
;TYPE=PLATED
T1F00S00C0.711
T2F00S00C0.900
T3F00S00C1.000
T4F00S00C1.020
T5F00S00C1.200
T6F00S00C3.200
%
T01
X160020Y44450
X158750Y48260
Y53340
Y59690
X160020Y69850
X165100
X170180Y68580
Y63500
Y58420
Y53340
X165100Y44450
X170180Y73660
Y78740
X153416Y75946
X148844Y69723
X151003Y64897
X151130Y58420
Y53340
Y48260
X153416Y50546
X154940Y44450
X144780Y48260
X133350
X125730Y49530
X130810Y63500
Y68580
X135890Y67310
X137160Y63500
X139700Y69850
X134620Y72390
X138430Y76200
X132461Y79248
X130429Y78105
X124460Y74930
X120650
Y69850
Y64770
X114300Y59690
Y54610
X111760Y49530
X115570Y44450
X118999Y87122
X113030Y115570
X124460
X125730Y114300
X124460Y109220
X123698Y104394
X124460Y100330
X129794Y99568
X127904Y106695
X133350Y105664
X131304Y110222
X134620Y111760
X135890Y116840
X130810
X150876Y111506
Y106426
X153416Y101346
X144907Y99568
X139319Y99314
X140589Y92329
X144780Y91440
X148590Y95250
X150876Y86106
Y81026
X138176Y85852
X135763Y87693
X135890Y90170
X135382Y83820
X133604Y82931
X131318Y80391
X124460Y80010
X120650
X121698Y92361
X128270Y87630
X160020Y95250
X165100
X170180Y93980
Y88900
Y83820
Y99060
Y104140
Y109220
Y115570
X165100Y120650
X160020
X153670
X147320
X119253
X115570
T02
X167386Y53086
Y55626
Y58166
Y60706
Y78486
X121539Y61214
Y58674
Y56134
Y53594
Y51054
Y48514
X118999
Y51054
Y53594
Y56134
Y58674
Y61214
X111760Y84328
Y86868
Y89408
Y91948
Y94488
Y97028
Y99568
Y102108
Y104648
Y107188
Y109728
Y112268
X145288Y108204
Y105664
Y103124
X167386Y103886
Y106426
Y108966
Y111506
Y86106
Y83566
Y81026
T03
X136906Y57023
X139446
X141986
T04
X161036Y48006
Y50546
Y53086
Y55626
Y58166
Y60706
Y63246
Y65786
Y73406
Y75946
Y78486
X148336
Y75946
Y73406
X142240Y73904
Y76444
Y78984
Y71364
X148336Y65786
Y63246
Y60706
Y58166
Y55626
Y53086
Y50546
Y48006
X155956Y63246
X158496
X116840Y71364
Y73904
Y76444
Y78984
Y81524
Y84064
Y86604
Y89144
Y91684
Y94224
Y96764
Y99304
Y101844
Y104384
Y106924
Y109464
Y112004
Y114544
Y117084
X142240
Y114544
Y112004
Y109464
Y106924
Y104384
Y101844
Y99304
Y96764
Y94224
Y91684
Y89144
Y86604
Y84064
Y81524
X148336Y81026
Y83566
Y86106
Y88646
Y91186
Y98806
Y101346
Y103886
Y106426
Y108966
Y111506
Y114046
Y116586
X155956Y114046
X158496
Y88646
X155956
X161036
Y91186
Y86106
Y83566
Y81026
Y98806
Y101346
Y103886
Y106426
Y108966
Y111506
Y114046
Y116586
T05
X137673Y47469
X141483
T06
X169000Y45746
X112000
X169000Y119746
X112000
M30
